<?xml version="1.0" encoding="UTF-8"?>
<svg xmlns="http://www.w3.org/2000/svg" xmlns:xlink="http://www.w3.org/1999/xlink" width="30px" height="30px" viewBox="0 0 30 30" version="1.1">
<g id="surface1">
<path style="fill:none;stroke-width:1;stroke-linecap:round;stroke-linejoin:round;stroke:rgb(86.27451%,20.784314%,27.058824%);stroke-opacity:1;stroke-miterlimit:4;" d="M 21.25 18.925 L 24.75 17 " transform="matrix(0.625,0,0,0.625,0,0)"/>
<path style="fill:none;stroke-width:1;stroke-linecap:round;stroke-linejoin:round;stroke:rgb(86.27451%,20.784314%,27.058824%);stroke-opacity:1;stroke-miterlimit:4;" d="M 24.75 17 L 24.75 31 " transform="matrix(0.625,0,0,0.625,0,0)"/>
<path style="fill:none;stroke-width:1;stroke-linecap:round;stroke-linejoin:round;stroke:rgb(86.27451%,20.784314%,27.058824%);stroke-opacity:1;stroke-miterlimit:4;" d="M 38.5 5.5 L 34.5 5.5 L 34.5 6.5 C 34.5 8.43125 32.93125 10 31 10 C 29.06875 10 27.5 8.43125 27.5 6.5 L 27.5 5.5 L 19.5 5.5 L 19.5 6.5 C 19.5 8.43125 17.93125 10 16 10 C 14.06875 10 12.5 8.43125 12.5 6.5 L 12.5 5.5 L 9.5 5.5 C 7.29375 5.5 5.5 7.29375 5.5 9.5 L 5.5 38.5 C 5.5 40.70625 7.29375 42.5 9.5 42.5 L 38.5 42.5 C 40.70625 42.5 42.5 40.70625 42.5 38.5 L 42.5 9.5 C 42.5 7.29375 40.70625 5.5 38.5 5.5 Z M 38.5 5.5 " transform="matrix(0.625,0,0,0.625,0,0)"/>
</g>
</svg>
