<?xml version="1.0" encoding="UTF-8"?>
<svg xmlns="http://www.w3.org/2000/svg" xmlns:xlink="http://www.w3.org/1999/xlink" width="30px" height="30px" viewBox="0 0 30 30" version="1.1">
<g id="surface1">
<path style="fill:none;stroke-width:1;stroke-linecap:round;stroke-linejoin:round;stroke:rgb(86.27451%,20.784314%,27.058824%);stroke-opacity:1;stroke-miterlimit:4;" d="M 25.075 28.33125 C 25.075 30.925 27.15 33 29.74375 33 C 32.3375 33 34.2375 30.925 34.2375 28.33125 L 34.2375 23.66875 C 34.2375 21.075 32.1625 19 29.74375 19 C 27.325 19 25.075 21.075 25.075 23.66875 Z M 25.075 28.33125 " transform="matrix(0.625,0,0,0.625,0,0)"/>
<path style="fill:none;stroke-width:1;stroke-linecap:round;stroke-linejoin:round;stroke:rgb(86.27451%,20.784314%,27.058824%);stroke-opacity:1;stroke-miterlimit:4;" d="M 19.46875 25.9125 C 21.36875 25.9125 22.925 27.46875 22.925 29.36875 C 22.925 31.26875 21.36875 32.825 19.46875 32.825 L 18.08125 32.825 C 15.6625 32.825 14.8 32.48125 13.7625 31.61875 " transform="matrix(0.625,0,0,0.625,0,0)"/>
<path style="fill:none;stroke-width:1;stroke-linecap:round;stroke-linejoin:round;stroke:rgb(86.27451%,20.784314%,27.058824%);stroke-opacity:1;stroke-miterlimit:4;" d="M 13.7625 20.2125 C 14.8 19.34375 15.8375 19 18.08125 19 L 19.46875 19 C 21.36875 19 22.925 20.55625 22.925 22.45625 C 22.925 24.35625 21.36875 25.9125 19.46875 25.9125 L 16.0125 25.9125 " transform="matrix(0.625,0,0,0.625,0,0)"/>
<path style="fill:none;stroke-width:1;stroke-linecap:round;stroke-linejoin:round;stroke:rgb(86.27451%,20.784314%,27.058824%);stroke-opacity:1;stroke-miterlimit:4;" d="M 8.1 7.85625 C 7.0375 7.85625 6.18125 8.71875 6.18125 9.78125 L 6.18125 41.58125 C 6.18125 42.64375 7.0375 43.5 8.1 43.5 L 39.9 43.5 C 40.9625 43.5 41.81875 42.64375 41.81875 41.58125 L 41.81875 9.78125 C 41.81875 8.71875 40.9625 7.85625 39.9 7.85625 Z M 8.1 7.85625 " transform="matrix(0.625,0,0,0.625,0,0)"/>
<path style="fill:none;stroke-width:1;stroke-linecap:round;stroke-linejoin:round;stroke:rgb(86.27451%,20.784314%,27.058824%);stroke-opacity:1;stroke-miterlimit:4;" d="M 12.81875 10.25625 L 12.81875 4.5 " transform="matrix(0.625,0,0,0.625,0,0)"/>
<path style="fill:none;stroke-width:1;stroke-linecap:round;stroke-linejoin:round;stroke:rgb(86.27451%,20.784314%,27.058824%);stroke-opacity:1;stroke-miterlimit:4;" d="M 35.18125 10.25625 L 35.18125 4.5 " transform="matrix(0.625,0,0,0.625,0,0)"/>
</g>
</svg>
