<?xml version="1.0" encoding="UTF-8"?>
<svg xmlns="http://www.w3.org/2000/svg" xmlns:xlink="http://www.w3.org/1999/xlink" width="24px" height="24px" viewBox="0 0 24 24" version="1.1">
<g id="surface1">
<path style=" stroke:none;fill-rule:nonzero;fill:rgb(0%,0%,0%);fill-opacity:1;" d="M 23.519531 3.359375 L 0.480469 3.359375 L 0.480469 20.640625 L 23.519531 20.640625 Z M 22.558594 19.679688 L 1.441406 19.679688 L 1.441406 4.320312 L 22.558594 4.320312 Z M 22.558594 19.679688 "/>
<path style=" stroke:none;fill-rule:nonzero;fill:rgb(0%,0%,0%);fill-opacity:1;" d="M 11.039062 12.960938 C 11.039062 11.785156 10.191406 10.808594 9.070312 10.601562 C 9.394531 10.191406 9.601562 9.683594 9.601562 9.121094 C 9.601562 7.796875 8.523438 6.722656 7.199219 6.722656 C 5.878906 6.722656 4.800781 7.796875 4.800781 9.121094 C 4.800781 9.683594 5.003906 10.191406 5.328125 10.601562 C 4.210938 10.808594 3.359375 11.785156 3.359375 12.960938 L 3.359375 16.320312 L 11.039062 16.320312 Z M 7.199219 7.679688 C 7.996094 7.679688 8.640625 8.324219 8.640625 9.121094 C 8.640625 9.914062 7.996094 10.558594 7.199219 10.558594 C 6.40625 10.558594 5.761719 9.914062 5.761719 9.121094 C 5.761719 8.324219 6.40625 7.679688 7.199219 7.679688 Z M 10.082031 15.359375 L 4.320312 15.359375 L 4.320312 12.960938 C 4.320312 12.167969 4.964844 11.519531 5.761719 11.519531 L 8.640625 11.519531 C 9.433594 11.519531 10.082031 12.167969 10.082031 12.960938 Z M 10.082031 15.359375 "/>
<path style=" stroke:none;fill-rule:nonzero;fill:rgb(0%,0%,0%);fill-opacity:1;" d="M 12.480469 8.160156 L 15.839844 8.160156 L 15.839844 9.121094 L 12.480469 9.121094 Z M 12.480469 8.160156 "/>
<path style=" stroke:none;fill-rule:nonzero;fill:rgb(0%,0%,0%);fill-opacity:1;" d="M 17.277344 8.160156 L 20.640625 8.160156 L 20.640625 9.121094 L 17.277344 9.121094 Z M 17.277344 8.160156 "/>
<path style=" stroke:none;fill-rule:nonzero;fill:rgb(0%,0%,0%);fill-opacity:1;" d="M 12.480469 10.558594 L 13.917969 10.558594 L 13.917969 11.519531 L 12.480469 11.519531 Z M 12.480469 10.558594 "/>
<path style=" stroke:none;fill-rule:nonzero;fill:rgb(0%,0%,0%);fill-opacity:1;" d="M 15.359375 10.558594 L 20.640625 10.558594 L 20.640625 11.519531 L 15.359375 11.519531 Z M 15.359375 10.558594 "/>
<path style=" stroke:none;fill-rule:nonzero;fill:rgb(0%,0%,0%);fill-opacity:1;" d="M 12.480469 12.960938 L 16.320312 12.960938 L 16.320312 13.917969 L 12.480469 13.917969 Z M 12.480469 12.960938 "/>
<path style=" stroke:none;fill-rule:nonzero;fill:rgb(0%,0%,0%);fill-opacity:1;" d="M 18.722656 12.960938 L 20.640625 12.960938 L 20.640625 13.917969 L 18.722656 13.917969 Z M 18.722656 12.960938 "/>
<path style=" stroke:none;fill-rule:nonzero;fill:rgb(0%,0%,0%);fill-opacity:1;" d="M 12.480469 15.359375 L 13.441406 15.359375 L 13.441406 16.320312 L 12.480469 16.320312 Z M 12.480469 15.359375 "/>
<path style=" stroke:none;fill-rule:nonzero;fill:rgb(0%,0%,0%);fill-opacity:1;" d="M 14.398438 15.359375 L 15.359375 15.359375 L 15.359375 16.320312 L 14.398438 16.320312 Z M 14.398438 15.359375 "/>
<path style=" stroke:none;fill-rule:nonzero;fill:rgb(0%,0%,0%);fill-opacity:1;" d="M 16.320312 15.359375 L 17.277344 15.359375 L 17.277344 16.320312 L 16.320312 16.320312 Z M 16.320312 15.359375 "/>
<path style=" stroke:none;fill-rule:nonzero;fill:rgb(0%,0%,0%);fill-opacity:1;" d="M 19.679688 15.359375 L 20.640625 15.359375 L 20.640625 16.320312 L 19.679688 16.320312 Z M 19.679688 15.359375 "/>
</g>
</svg>
