<svg width="30" height="30" fill="none" xmlns="http://www.w3.org/2000/svg"><path d="M4.25 16h-4v4.25H8L4.25 16ZM25.25 16h4v4.25H21.5L25.25 16Z" fill="#CF243F"/><path d="M12.392 3.14c-2.76.194-4.224.47-5.35 1.003-.52.246-.779.492-1.154 1.107-.603.99-1.95 3.75-3.023 6.2-.24.544-.27.591-.58.784-.979.627-1.658 1.588-2.016 2.86-.24.855-.287 1.453-.252 2.994.041 1.488.106 2.127.399 3.639.205 1.048.31 1.294.62 1.382l.188.059.018 1.172c.017 1.113.023 1.195.158 1.47.188.37.545.727.914.915l.293.14h4.746l.322-.152c.41-.194.739-.522.926-.926.117-.252.153-.433.176-.95l.03-.632.163.082c.246.129 11.813.129 12.059 0l.164-.082.03.633c.023.515.058.697.175.95.188.403.516.732.926.925l.322.152h4.746l.293-.14c.37-.188.727-.545.914-.915.135-.275.14-.357.159-1.47l.017-1.172.188-.059c.31-.088.416-.334.62-1.382.294-1.512.358-2.15.4-3.64.034-1.54-.013-2.138-.253-2.993-.357-1.272-1.037-2.233-2.015-2.86-.311-.193-.34-.24-.58-.785-.604-1.377-1.753-3.82-2.227-4.74-.645-1.242-1.02-1.863-1.3-2.145-.476-.474-1.688-.89-3.352-1.166-1.22-.193-2.116-.246-4.817-.263-1.512-.006-2.883-.006-3.047.006Zm4.98 1.313c2.333.117 4.038.404 4.987.856.246.117.363.222.557.51.41.615 2.76 5.437 2.683 5.513-.012.018-.275-.023-.58-.088-.738-.152-1.582-.27-2.695-.375-2.133-.2-3.164-.228-7.324-.228s-5.192.029-7.325.228c-1.113.106-1.957.223-2.695.375-.305.065-.568.106-.58.088-.076-.076 2.273-4.898 2.684-5.514.193-.287.31-.392.556-.51.65-.31 1.858-.58 3.287-.738 1.43-.158 4.442-.216 6.446-.117Zm2.55 7.559c2.707.158 4.312.357 5.507.673.721.194 1.055.335 1.518.64.709.474 1.172 1.072 1.465 1.91l.117.322-1.242.035c-1.342.035-1.647.093-2.268.451-.386.223-3.674 3.498-3.756 3.744a.622.622 0 0 0 .159.668l.152.14 3.44.03 3.439.03-.112.597-.11.604H22.921l-1.243.615-1.236.615H9.556L8.32 22.47l-1.242-.616H1.775l-.1-.486a5.114 5.114 0 0 1-.093-.615v-.129h6.785l.176-.146a.608.608 0 0 0 .193-.692c-.082-.246-3.37-3.521-3.756-3.744-.621-.357-.926-.416-2.267-.451l-1.243-.035.118-.323c.293-.838.755-1.435 1.464-1.91.463-.304.797-.445 1.518-.639 1.47-.392 4.06-.65 7.53-.755 1.23-.035 6.802.017 7.822.082ZM4.013 17.05c.31.117.475.258 1.436 1.207l1.084 1.078h-2.56c-1.5 0-2.573-.023-2.596-.053-.018-.03-.047-.586-.07-1.236l-.036-1.184 1.195.024c1.073.023 1.23.04 1.547.164Zm24.68 1.002c-.023.644-.053 1.2-.07 1.23-.024.03-1.096.053-2.596.053h-2.56l1.06-1.055c1.395-1.388 1.395-1.388 3.182-1.4l1.02-.006-.036 1.178ZM7.095 23.355l.416.206-.023.802c-.035 1.295.07 1.242-2.473 1.242-1.547 0-1.95-.017-2.12-.087-.323-.135-.376-.334-.376-1.436v-.938h4.16l.416.212Zm20.385.727c0 1.102-.053 1.3-.375 1.436-.17.07-.574.087-2.121.087-2.543 0-2.438.053-2.473-1.242l-.023-.802.398-.206.405-.205 2.097-.005h2.092v.937Z" fill="#201F1D"/><path d="M7.91 15.627c-.047.018-.158.1-.246.182-.217.199-.228.615-.035.867.357.457 3.064 3.703 3.193 3.814l.14.135h8.075l.14-.135c.13-.111 2.837-3.357 3.194-3.814.088-.117.129-.246.129-.44 0-.234-.03-.304-.182-.45l-.175-.17-7.073-.012c-3.89-.006-7.113.005-7.16.023Zm12.498 1.324c-.023.047-.48.598-1.008 1.23l-.96 1.155h-6.88l-.96-1.154c-.528-.633-.985-1.184-1.008-1.23-.041-.065.861-.077 5.408-.077 4.547 0 5.45.012 5.408.076Z" fill="#201F1D"/></svg>