<svg width="31" height="26" fill="none" xmlns="http://www.w3.org/2000/svg"><path d="m8.426 12.824-.586-3.75-3.809 2.578 1.114 1.172h3.28Z" fill="#CF243F" stroke="#201F1D"/><path d="M27.703 14.7H1.63l1.758 7.734 2.285 2.87h16.523l3.75-.35.996-2.169.762-8.086Z" fill="#CF243F"/><path d="M19.84.344c-.48.082-.885.222-2.11.726-4.652 1.922-9.04 4.325-12.263 6.727-1.395 1.037-2.238 1.77-3.51 3.047l-1.225 1.23.036.627c.117 1.963.867 5.631 1.593 7.781.657 1.952 1.659 3.838 2.414 4.553.287.27.838.545 1.243.621.199.035 2.894.059 7.33.059 7.007 0 7.013 0 7.171-.123.176-.14.212-.475.07-.674-.081-.111-.24-.111-7.282-.14l-7.196-.03-.263-.14c-.387-.2-.674-.499-1.026-1.067-1.119-1.805-1.957-4.148-2.549-7.143-.1-.498-.193-.966-.205-1.043l-.029-.128h12.832c7.055 0 12.832.017 12.832.046 0 .123-1.476 8.391-1.523 8.543-.088.258-.44.65-.727.803-.228.123-.322.129-1.799.147-1.459.017-1.57.023-1.687.134-.188.176-.17.534.035.698.158.123.2.129 1.775.105l1.612-.017.392-.188c.668-.316 1.16-.879 1.33-1.512.176-.662 3.639-20.549 3.639-20.894a2.35 2.35 0 0 0-.088-.633 1.95 1.95 0 0 0-1.289-1.207C29.027 1.158 20.9.279 20.432.29a6.01 6.01 0 0 0-.592.053Zm4.992 1.324c3.445.363 4.236.463 4.441.562.317.153.54.51.54.874 0 .199-1.764 10.423-1.905 11.05l-.03.135H1.888l-.106-.873c-.105-.873-.105-.879.012-1.043.223-.31 2.033-2.045 2.766-2.654C6.393 8.2 8.707 6.643 11.326 5.184c1.072-.598 3.785-1.946 5.069-2.508 2.455-1.084 3.433-1.436 4.013-1.447.13-.006 2.121.193 4.424.439Z" fill="#201F1D"/><path d="M19.998 2.102c-.72.146-4.787 1.933-6.884 3.029-2.69 1.406-4.237 2.373-7.588 4.752-1.705 1.207-1.799 1.312-1.834 1.951-.041.668.205 1.113.773 1.418.235.129.287.129 3.37.146 2.197.012 3.181 0 3.292-.046.287-.123.364-.47.164-.727l-.117-.152H8.866l.017-1.243c.024-1.382-.006-1.546-.304-1.939l-.194-.252.856-.562c2.666-1.74 6.27-3.586 9.75-4.993.586-.24 1.154-.45 1.265-.474.24-.053 7.682.732 7.682.808 0 .059-1.447 8.315-1.494 8.52l-.03.135H12.768l-.117.152c-.205.264-.152.557.117.697.14.076 1.13.088 7.137.088 4.986 0 7.013-.017 7.113-.064a.469.469 0 0 0 .205-.194c.03-.07.445-2.326.92-5.01l.861-4.886-.11-.152a.639.639 0 0 0-.317-.2c-.282-.064-7.875-.861-8.133-.855-.117.006-.317.03-.445.053ZM7.719 9.807a.529.529 0 0 1 .204.175c.018.053.036.569.036 1.149 0 .967-.012 1.06-.118 1.166a.619.619 0 0 1-.252.146c-.07.024-.703.03-1.4.018-1.248-.018-1.272-.018-1.418-.158-.182-.17-.205-.463-.047-.639.152-.176 2.672-1.945 2.777-1.945a.81.81 0 0 1 .217.088ZM15.932 16.375c-.147.188-.153.37-.03.902.164.739.692 1.377 1.424 1.723l.387.182 2.367.017c2.285.018 2.373.012 2.742-.111a2.616 2.616 0 0 0 1.09-.72c.498-.563.809-1.73.54-2.028-.106-.117-.212-.117-4.255-.117H16.05l-.117.152Zm7.552.844c0 .263-.539.808-.972.972-.264.1-.463.112-2.367.112-1.993 0-2.092-.006-2.35-.123-.346-.164-.674-.457-.82-.733a1.984 1.984 0 0 1-.112-.258c0-.017 1.489-.029 3.31-.029 2.274 0 3.311.018 3.311.059Z" fill="#201F1D"/></svg>