<svg width="31" height="30" fill="none" xmlns="http://www.w3.org/2000/svg"><g clip-path="url(#a)"><path d="M2.024 8.5.969 10.786l2.638 2.285h3.575L8.59 11.08l2.169-2.169 2.638-2.461v-2.99L12.223.47h-.996L9.586 1.701H7.768L4.955 3.05l-2.58 3.4-.351 2.05Z" fill="#CF243F" stroke="#201F1D"/><path d="M10.875.23c-.65.234-1.283.498-1.823.774-.316.158-.334.158-.586.07-.557-.193-1.014-.03-2.25.785-1.624 1.079-2.773 2.216-3.823 3.792-.838 1.26-1.014 1.759-.82 2.315.088.252.088.27-.053.545C.945 9.643.5 10.897.5 11.383c0 .457.205.856.563 1.096.222.14 1.16.446 1.764.569.17.035.176.047.13.223-.27 1.02-.353 3.54-.147 4.84.814 5.27 4.378 9.536 9.355 11.195.926.31 1.958.539 2.925.65.791.088 2.948.035 3.722-.088a14.29 14.29 0 0 0 5.076-1.875c1.66-1.014 3.26-2.561 4.367-4.226.47-.709 1.185-2.133 1.466-2.924.533-1.489.738-2.65.774-4.402.04-1.946-.153-3.258-.727-4.917-1.999-5.767-7.574-9.577-13.676-9.336-.838.035-1.893.158-2.315.27l-.182.046-.193-.768C13.12.652 12.962.376 12.47.125c-.381-.194-.85-.165-1.595.105Zm1.097 1.073c.023.04.234.773.463 1.629.287 1.067.392 1.565.351 1.594-.035.024-.223.1-.416.164-.55.182-1.823.827-2.433 1.231a12.06 12.06 0 0 0-3.476 3.458c-.433.656-1.078 1.91-1.272 2.49-.064.194-.14.382-.164.417-.058.088-3.177-.745-3.259-.868-.082-.134.293-1.137.82-2.22.241-.487.435-.956.435-1.05 0-.088-.07-.264-.153-.387l-.152-.228.158-.293c.75-1.342 1.929-2.755 3.066-3.658.404-.328 1.336-.949 1.8-1.207l.292-.158.229.152c.123.082.299.153.387.153.094 0 .568-.2 1.06-.44.874-.422 1.912-.838 2.117-.85.053 0 .117.035.147.07Zm5.826 2.156a12.73 12.73 0 0 1 10.223 7.121c.868 1.782 1.26 3.488 1.26 5.51 0 2.924-.932 5.608-2.737 7.906-.422.533-1.512 1.623-2.046 2.045-1.618 1.272-3.699 2.222-5.621 2.556-1.178.21-2.826.252-3.898.1-4.256-.598-7.802-3.125-9.725-6.928-1.213-2.41-1.612-5.087-1.167-7.83a3.16 3.16 0 0 1 .1-.452c.03-.04.14-.035.358.024.445.117.785.111 1.06-.03.2-.105.3-.117.657-.082.862.077 1.67-.205 2.263-.785.181-.182.568-.692.856-1.125a8.783 8.783 0 0 1 2.608-2.608c.434-.287.944-.674 1.125-.862.58-.58.862-1.395.78-2.25-.035-.358-.017-.458.082-.663.147-.275.153-.61.035-1.06-.058-.23-.064-.329-.017-.358.07-.047.72-.152 1.366-.223.61-.07 1.752-.07 2.438-.006Zm-5.123 2.75c-.07.609-.334.937-1.202 1.505-1.465.962-2.303 1.8-3.259 3.259-.569.873-.897 1.131-1.512 1.201-.293.036-.293.036-.252-.105.105-.358.68-1.436 1.09-2.045a11.165 11.165 0 0 1 3.875-3.535c.398-.222 1.149-.562 1.242-.568.03 0 .036.129.018.287Z" fill="#201F1D"/><path d="M9.392 3.905c-.316.31-.228.832.165.996.62.258 1.154-.504.68-.979-.235-.234-.622-.24-.845-.017ZM4.604 8.74c-.229.088-.352.287-.352.569 0 .72 1.05.832 1.202.129a.629.629 0 0 0-.346-.675c-.235-.1-.3-.105-.504-.023ZM16.778 4.772c-.053.041-.37.534-.692 1.096-.697 1.202-.75 1.39-.475 1.7.153.17.217.2.44.2.176 0 .305-.036.387-.112.176-.159 1.283-2.087 1.295-2.263.041-.474-.146-.703-.58-.703-.147 0-.317.041-.375.082ZM21.192 7.029c-1.008.586-1.09.65-1.16.855-.147.446.1.792.556.792.211 0 .417-.094 1.278-.592.586-.34 1.079-.663 1.132-.745a.831.831 0 0 0 .1-.38c0-.182-.042-.264-.194-.4-.328-.292-.48-.251-1.712.47ZM15.746 9.086c-1.108.14-2.514.703-3.359 1.348a9.456 9.456 0 0 0-1.488 1.494c-.381.504-.932 1.66-1.108 2.31-.856 3.24.604 6.599 3.528 8.111.294.152.604.276.692.276a.601.601 0 0 0 .616-.616c0-.293-.13-.44-.61-.692-1.56-.808-2.614-2.127-3.06-3.82-.21-.792-.223-1.911-.035-2.685.44-1.77 1.653-3.259 3.283-4.009C16.39 9.79 19 10.276 20.723 12.01c.744.75 1.243 1.618 1.536 2.69.105.37.129.616.129 1.39 0 1.078-.1 1.576-.493 2.414-.562 1.208-1.512 2.21-2.637 2.772-.563.282-.675.405-.675.745 0 .223.03.287.194.433.264.235.48.223 1.06-.07 1.941-.967 3.377-2.942 3.729-5.122.61-3.745-1.811-7.291-5.51-8.065-.633-.129-1.718-.181-2.31-.111ZM23.795 10.61c-.293.117-.422.644-.229.914.165.24.352.264 1.689.246l1.272-.018.152-.152a.682.682 0 0 0 .182-.393c.03-.216.011-.263-.176-.45l-.205-.206-1.278.006c-.71 0-1.342.023-1.407.053Z" fill="#201F1D"/><path d="M16.315 11.465c-.17.088-.34.358-.34.522 0 .182.181.48.328.551.574.258 1.096-.264.838-.838-.07-.152-.375-.328-.563-.328a.756.756 0 0 0-.263.093ZM14.14 12.098c-.322.3-.235.838.164 1.008.615.258 1.149-.51.68-.978a.624.624 0 0 0-.844-.03ZM18.232 12.098c-.311.317-.217.844.187 1.008.27.118.504.06.692-.164.21-.252.205-.586-.024-.814-.228-.229-.639-.24-.855-.03ZM12.81 13.487c-.229.088-.352.288-.352.569 0 .527.58.791.985.451.322-.27.27-.803-.1-.99-.2-.106-.322-.112-.533-.03ZM19.925 13.476c-.392.17-.498.709-.205 1.008.428.422 1.15.04 1.038-.551-.07-.364-.498-.598-.832-.457ZM16.063 13.792c-1.213.316-2.004 1.495-1.8 2.673.147.814.57 1.395 1.29 1.746.428.217.47.223 1.067.223.58 0 .645-.012 1.003-.188.474-.234.938-.709 1.154-1.172.317-.703.223-1.688-.228-2.344-.516-.75-1.618-1.16-2.486-.938Zm1.073 1.313c.504.264.745.967.492 1.46-.31.597-.937.826-1.518.544a1.097 1.097 0 0 1-.322-1.764c.375-.398.867-.486 1.348-.24ZM5.36 15.117c-.223.222-.241.627-.036.844.07.076.58.398 1.126.715 1.06.61 1.277.674 1.576.474.217-.14.305-.48.194-.744-.076-.182-.223-.287-1.172-.832-1.231-.71-1.39-.756-1.689-.457ZM25.225 15.04c-.205.112-.282.253-.282.54 0 .158.041.275.135.369.158.17 2.075 1.272 2.24 1.284.28.029.398-.012.568-.176.158-.164.176-.211.146-.452-.017-.146-.076-.31-.134-.369-.065-.059-.575-.375-1.137-.697-1.073-.616-1.232-.668-1.536-.498ZM12.212 15.568c-.17.088-.34.357-.34.521 0 .182.182.481.328.551.082.035.24.065.352.065.592 0 .768-.885.229-1.143-.24-.111-.364-.111-.569.006ZM20.418 15.568c-.17.088-.34.357-.34.522 0 .181.182.48.328.55.575.258 1.097-.263.839-.838-.07-.152-.376-.328-.563-.328a.757.757 0 0 0-.264.094ZM12.81 17.59c-.229.088-.352.287-.352.568 0 .528.58.792.985.452.223-.188.281-.422.164-.692-.135-.322-.463-.457-.797-.328ZM19.926 17.578a.86.86 0 0 0-.258.223c-.176.229-.135.627.088.82.182.159.55.182.756.047.305-.199.34-.709.07-.96-.152-.147-.469-.206-.656-.13ZM14.147 19.22c-.165.146-.194.21-.194.433 0 .322.182.545.48.604.593.11.974-.61.552-1.038-.24-.24-.575-.24-.838 0ZM18.25 19.22c-.165.146-.194.21-.194.433 0 .322.181.545.48.604.592.11.973-.61.551-1.038-.24-.24-.574-.24-.838 0ZM24.433 19.524c-.1.03-.24.123-.304.205-.229.293-.176.475.51 1.647.539.938.656 1.102.832 1.172.258.111.604.018.744-.2.2-.298.135-.503-.51-1.617-.691-1.207-.826-1.33-1.271-1.207ZM16.315 19.67c-.17.088-.34.358-.34.522 0 .182.181.48.328.551.574.258 1.096-.264.838-.838-.07-.152-.375-.328-.563-.328a.756.756 0 0 0-.263.093ZM6.515 20.638c-.311.369-.135.92.322 1.013.305.06 2.233.041 2.474-.029.24-.064.451-.328.451-.568 0-.182-.152-.463-.287-.54-.07-.035-.65-.058-1.46-.058H6.667l-.152.182ZM16.315 22.015c-.17.088-.34.357-.34.522 0 .181.181.48.328.55.574.258 1.096-.263.838-.838-.07-.152-.375-.328-.563-.328a.759.759 0 0 0-.263.094ZM21.128 23.146l-.17.17v1.33c0 .798.024 1.372.059 1.442.076.135.357.287.539.287a.777.777 0 0 0 .322-.117c.282-.17.323-.41.3-1.77l-.018-1.172-.194-.17c-.264-.24-.598-.24-.838 0ZM11.403 24.09c-.563.322-1.084.656-1.155.738-.316.358-.052.967.428.979.194.006.41-.094 1.302-.604 1.102-.627 1.242-.75 1.242-1.078a.612.612 0 0 0-.627-.621c-.105 0-.557.222-1.19.586ZM16.743 24.6c-.24.246-1.296 2.133-1.296 2.32 0 .37.27.628.65.628.27 0 .487-.258 1.103-1.337.639-1.12.686-1.318.363-1.605-.252-.23-.598-.23-.82-.006Z" fill="#201F1D"/></g><defs><clipPath id="a"><path fill="#fff" transform="translate(.5)" d="M0 0h30v30H0z"/></clipPath></defs></svg>