<svg width="31" height="30" fill="none" xmlns="http://www.w3.org/2000/svg"><path d="m17.125 17.988 1.172-1.347 1.933-.645 1.465 1.348 2.11 5.566v1.992l-2.11 1.348-3.398.41-.293-2.93-.879-5.742ZM.895 12.95l2.93-4.337 2.167 2.403.82 2.695-.468 2.168-2.52.879-2.344-.88-.585-2.929Z" fill="#CF243F"/><g clip-path="url(#a)" fill="#201F1D"><path d="M1.733.158c-.329.112-.797.54-.944.85-.064.14-.21.592-.334 1.008-.187.65-.217.814-.193 1.177.04.662.392 1.196.967 1.465.105.053 1.898.592 3.984 1.207 2.092.615 3.861 1.16 3.937 1.207.235.153 3.17 2.614 3.17 2.655 0 .234 3.487 18.105 3.586 18.363.416 1.13 1.57 1.91 2.83 1.91.258 0 .616-.041.791-.088.176-.04 1.43-.574 2.778-1.172l2.46-1.084.147.14c.305.282.645.411 1.12.411.427.006.486-.018 1.921-.61 1.647-.673 1.91-.843 2.157-1.376.105-.223.14-.399.14-.721v-.428l-2.344-5.718-2.343-5.725.234-.281c.37-.434.498-.762.492-1.278 0-.562-.152-.931-.568-1.33-.17-.164-1.453-1.295-2.854-2.508-1.787-1.546-2.642-2.255-2.87-2.36-.264-.124-.405-.153-.762-.153-.71.006-.985.181-1.846 1.154l-.352.398-.79-.667c-1.659-1.395-4.67-3.82-4.893-3.944-.13-.076-2.121-.691-4.424-1.365C2.406-.041 2.33-.06 1.733.158Zm4.804 2.127c2.197.645 4.084 1.213 4.19 1.26.105.047.89.656 1.746 1.353l1.552 1.266-.351.387c-.193.217-.61.668-.926 1.002l-.574.61-1.172-.98c-.645-.538-1.266-1.03-1.377-1.09-.111-.058-1.88-.597-3.926-1.195C3.654 4.295 1.873 3.762 1.75 3.71c-.258-.117-.445-.375-.445-.627 0-.094.094-.492.21-.896.188-.616.247-.75.417-.897.14-.123.258-.176.404-.176.117 0 2.004.528 4.201 1.172ZM19.703 6.95c.111.076 1.366 1.149 2.783 2.385 1.665 1.447 2.62 2.314 2.69 2.45.164.298.07.556-.375 1.077-.193.223-.363.48-.381.569-.03.117.533 1.535 2.367 6.023 1.541 3.756 2.408 5.942 2.408 6.07 0 .364-.199.493-1.61 1.067-.71.287-1.349.539-1.419.562-.205.065-.521-.105-.691-.375-.164-.258-.387-.38-.598-.322-.07.018-1.365.58-2.871 1.248l-2.742 1.213h-.498c-.416 0-.551-.023-.832-.158-.399-.188-.797-.569-.973-.938-.1-.193-.621-2.812-1.887-9.398-.966-5.022-1.775-9.182-1.793-9.24a.67.67 0 0 0-.152-.217l-.123-.111.674-.721c.369-.399.79-.85.931-1.002l.258-.281.99.82c.54.457 1.05.844 1.126.861.28.07.427-.035 1.054-.756.34-.392.692-.773.774-.843.27-.229.55-.223.89.017Z"/><path d="M14.565 9.363c-.182.03-.37.287-.37.504 0 .1.065.434.147.738.164.633.263.762.627.762.27 0 .515-.217.515-.463-.005-.299-.345-1.47-.427-1.47-.006 0-.094-.024-.188-.047-.1-.024-.234-.035-.304-.024ZM15.25 12.03a.62.62 0 0 0-.229.245c-.076.153-.053.3.287 1.752.205.873.405 1.659.446 1.74.093.182.187.23.492.23.27 0 .469-.206.469-.487 0-.094-.159-.862-.358-1.705-.38-1.635-.433-1.758-.785-1.823a.552.552 0 0 0-.322.047ZM18.87 15.82a5.575 5.575 0 0 0-.837.252c-.428.2-.873.657-1.096 1.125-.316.68-.31.774.363 5.215.323 2.162.622 4.02.657 4.131.152.486.545.762 1.072.762.328 0 .516-.076 2.871-1.114 1.389-.615 2.555-1.16 2.596-1.218a.869.869 0 0 0 .111-.235c.035-.134-2.338-7.306-2.572-7.77-.152-.304-.586-.761-.89-.937-.58-.34-1.325-.41-2.274-.21Zm1.425 1.002c.275.094.556.317.726.569.112.175 2.373 6.767 2.373 6.925 0 .041-1.113.551-1.136.516-.012-.012-.446-1.283-.967-2.83-.528-1.547-1.026-2.941-1.108-3.1-.21-.392-.691-.902-1.283-1.365-.27-.21-.486-.398-.486-.428 0-.058.451-.21.85-.287.416-.076.802-.076 1.03 0Zm-1.97 1.64c.499.405.81.733.956 1.032.065.123.54 1.477 1.055 3.012l.943 2.789-1.084.48c-1.066.463-1.254.528-1.254.422 0-.029-.264-1.799-.586-3.931-.322-2.127-.586-3.95-.586-4.05 0-.21 0-.21.557.247ZM3.397 8.05c-.288.106-.393.206-.82.762C1.75 9.896.864 11.455.478 12.51c-.182.498-.194.574-.194 1.318-.006.68.012.838.123 1.137.569 1.506 1.957 2.402 3.563 2.297.967-.059 1.67-.375 2.32-1.032.943-.955 1.219-2.267.762-3.62-.451-1.348-2.162-4.132-2.754-4.483a1.176 1.176 0 0 0-.903-.076Zm1.189 2.151c.926 1.395 1.541 2.701 1.623 3.451.035.364-.082.909-.281 1.301-.182.352-.703.85-1.078 1.02-1.266.58-2.72.088-3.317-1.125-.164-.329-.199-.475-.217-.897-.023-.434 0-.568.13-.967.304-.908 1.095-2.326 1.892-3.398l.38-.51.147.135c.082.076.405.521.721.99Z"/></g><defs><clipPath id="a"><path fill="#fff" transform="translate(.25)" d="M0 0h30v30H0z"/></clipPath></defs></svg>