<svg width="31" height="30" fill="none" xmlns="http://www.w3.org/2000/svg"><g clip-path="url(#a)"><path d="m11.004 24.785-.996 3.164h3.164l.293-.644 1.289-1.524h1.348l1.464.996.938 1.172h2.637l.351-.644-1.64-2.871-2.286-1.641H14.11l-3.105 1.992Z" fill="#CF243F" stroke="#201F1D"/><path d="M13.934 17.402v-2.109l1.875.293 1.523-.293v2.11l-1.523.761-1.875-.762Z" fill="#CF243F" stroke="#CF243F"/><path d="m18.152 22.031.293 1.817 1.407.468 1.054-.468 1.23.879 2.052 2.05 2.519 2.051h2.637l.996-1.7-.996-1.405-2.11-1.407-3.515-1.933-3.223-1.934-1.64.469-.704 1.113ZM1.219 26.484l6.914-4.394 2.344-1.348h1.64l1.23 1.348-.292 1.758-1.64.586-.938-.586-.88.586-1.113 1.23-2.578 2.52-2.988.82-1.7-.82v-1.7Z" fill="#CF243F" stroke="#201F1D"/><path d="M14.871.152c-.434.082-.955.276-2.566.944-.973.404-1.875.808-2.004.902a1.828 1.828 0 0 0-.393.445c-.146.246-.164.34-.164.78 0 .433.018.533.158.761.082.147.305.41.48.586l.329.317v2.73h-.328c-.51 0-.78.106-1.108.44-.328.328-.44.597-.44 1.084 0 .92.622 1.523 1.56 1.523h.421l.041.217c.27 1.447 1.29 3.129 2.456 4.037.374.299.439.37.439.533.006.17-.018.194-.27.276-.158.046-1.6.486-3.21.972-1.946.592-3.065.961-3.329 1.102-.504.258-1.195.896-1.494 1.377-.123.199-.943 1.664-1.828 3.252-1.441 2.601-1.629 2.906-1.846 3.058-.31.211-.515.457-.72.844-.147.27-.159.357-.159.943 0 .569.018.68.147.938.182.375.65.844 1.025 1.025.27.135.364.147 1.084.147.592 0 .88-.03 1.143-.106a5.606 5.606 0 0 0 1.7-.89l.41-.328.029.814c.017.568.052.844.11.908.071.094.798.1 9.2.1 7.02 0 9.14-.018 9.194-.07.046-.047.07-.34.07-.944v-.867l.164.123c.088.064.293.229.451.357.34.27 1.078.645 1.582.797.264.076.55.106 1.143.106.72 0 .814-.012 1.084-.147.375-.181.85-.656 1.013-1.008.446-.96.135-2.15-.72-2.742-.217-.152-.405-.457-1.846-3.058a254.435 254.435 0 0 0-1.828-3.252c-.299-.48-.99-1.12-1.494-1.383-.276-.14-1.383-.504-3.422-1.125-1.653-.504-3.1-.938-3.2-.973-.163-.052-.193-.088-.187-.246 0-.164.064-.234.44-.533 1.166-.908 2.185-2.59 2.455-4.037l.04-.217h.381c.563 0 .82-.1 1.16-.44.34-.333.44-.597.44-1.119-.006-.86-.639-1.488-1.506-1.488h-.369v-2.73l.328-.317c.451-.445.615-.744.65-1.19.042-.456-.052-.784-.292-1.107-.252-.328-.375-.392-2.297-1.189-2.233-.926-2.221-.92-3.282-.943a14.5 14.5 0 0 0-1.025.011Zm1.846.815c.416.094 3.873 1.517 4.037 1.658.246.229.34.639.205.908-.035.07-.211.281-.393.463l-.328.34h-8.976l-.328-.34c-.182-.182-.358-.392-.393-.463-.135-.27-.041-.68.205-.902.123-.111 3.516-1.535 3.897-1.635a4.347 4.347 0 0 1 2.074-.03Zm3.369 4.424v.351h-8.672V5.04h8.672v.352Zm-.527 1.084c0 .082-.598.398-.967.515-.399.123-.498.13-2.842.13-2.344 0-2.443-.007-2.842-.13-.369-.117-.967-.433-.967-.515 0-.018 1.717-.03 3.809-.03 2.098 0 3.809.012 3.809.03Zm-7.752.86c.134.095.421.241.644.33l.399.157h5.8l.41-.164c.23-.088.551-.252.721-.363l.305-.205v1.008c-.006 2.414-.264 3.492-1.154 4.845-.815 1.23-2.344 2.373-3.182 2.373-.832 0-2.361-1.142-3.182-2.373-.884-1.336-1.148-2.466-1.154-4.904 0-.75.018-.95.076-.914.035.03.182.123.317.21ZM10.71 9.142c0 .814 0 .82-.129.82-.328-.006-.61-.117-.791-.316-.164-.176-.193-.252-.193-.504 0-.48.363-.791.955-.815l.158-.006v.82Zm10.576-.762a.915.915 0 0 1 .428.258c.158.175.187.252.187.504s-.029.328-.187.504c-.188.199-.469.31-.791.316-.135 0-.135-.006-.135-.82 0-.926-.03-.885.498-.762Zm-6.328 7.576c.21.082.428.117.791.117.475 0 .58-.023 1.195-.281.106-.047.112-.023.076.55-.035.727-.175 1.055-.562 1.325-.229.158-.293.176-.709.176s-.48-.018-.709-.176c-.387-.27-.527-.598-.563-1.324-.035-.574-.029-.598.077-.551l.404.164Zm-1.19.902c.047.68.44 1.254 1.073 1.588.263.14.357.159.908.159.55 0 .645-.018.908-.159.633-.334 1.026-.908 1.072-1.588.012-.216.041-.392.053-.392.012 0 1.336.398 2.936.879 3.404 1.031 3.668 1.142 4.265 1.775.364.381.557.697 1.793 2.93.762 1.377 1.371 2.502 1.36 2.502-.012 0-1.547-.88-3.41-1.957a402.117 402.117 0 0 0-3.704-2.121c-.298-.159-.369-.17-.966-.17-.586 0-.674.011-.979.164a2.87 2.87 0 0 0-.592.41l-.252.252-.351-.106c-1.26-.38-3.006-.38-4.266 0l-.351.106-.252-.252c-.405-.393-.82-.563-1.43-.592-.375-.017-.598 0-.809.07-.164.053-1.892 1.02-3.843 2.145-1.952 1.13-3.557 2.05-3.575 2.05-.011 0 .604-1.124 1.366-2.507 1.318-2.379 1.412-2.525 1.834-2.953.34-.352.55-.504.879-.656.345-.165 5.994-1.94 6.24-1.963.04-.006.076.146.094.386Zm-1.664 4.33c.387.194.622.481.78.95.152.468.135.908-.059 1.172-.146.21-.82.632-1.142.72-.287.082-.61-.017-.914-.27-.311-.257-.47-.257-.756 0-.123.112-.246.206-.276.206-.047 0-.96-1.524-.96-1.6 0-.035 1.986-1.19 2.179-1.271.281-.112.826-.065 1.148.093Zm9.522.51c.604.352 1.096.65 1.096.668 0 .082-.909 1.6-.955 1.6-.03 0-.159-.094-.282-.205-.287-.258-.445-.258-.756 0-.48.398-.82.392-1.523-.03-.51-.298-.662-.503-.691-.931-.041-.656.328-1.336.884-1.617.258-.13.364-.153.715-.135.405.017.434.03 1.512.65Zm-4.277-.017c.28.07.51.158.51.187 0 .03-.03.17-.065.317-.053.199-.088.252-.164.234-.686-.217-.89-.24-1.881-.24-.99 0-1.195.023-1.88.24-.077.018-.112-.035-.165-.234a2.888 2.888 0 0 1-.064-.317c0-.047.697-.24 1.171-.328.083-.012.569-.018 1.085-.012.75.012 1.042.047 1.453.153Zm-8.73 2.004.497.86-1.705 1.548c-1.892 1.705-2.133 1.904-2.625 2.15-.756.387-1.816.533-2.314.322-.909-.375-1.149-1.6-.452-2.273.211-.193 6.012-3.55 6.065-3.504.018.018.264.422.533.897Zm18.878 1.406c1.002.58 1.887 1.119 1.98 1.207.364.346.504 1.031.311 1.5-.123.293-.445.627-.732.756-.51.222-1.559.088-2.344-.31-.486-.247-.72-.434-2.62-2.151l-1.716-1.547.416-.715c.229-.392.463-.797.527-.902l.112-.188 1.125.65c.62.358 1.945 1.126 2.941 1.7Zm-10.799-2.115c.668.134 1.049.293 1.154.474.311.574.932 1.055 1.647 1.278.275.087.352.146.54.416.462.668.925 1.898.925 2.46v.17h-2.508l-.041-.24c-.123-.709-.791-1.535-1.535-1.887-.381-.181-.428-.187-1.131-.187-.703 0-.75.006-1.13.188-.745.351-1.413 1.177-1.536 1.886l-.041.24h-2.508v-.17c0-.562.463-1.793.926-2.46.187-.27.264-.329.539-.416.662-.206 1.283-.65 1.53-1.09.216-.375.257-.405.949-.58.603-.159 1.664-.2 2.22-.082Zm-6.117 1.617c.088.053.164.105.176.111.012.006-.1.235-.246.504A6.459 6.459 0 0 0 9.855 27c-.1.533-.105 1.313-.011 1.406.105.106 3.756.1 3.85-.006.034-.046.087-.257.116-.474.07-.492.24-.844.569-1.172.416-.416.715-.533 1.371-.533s.955.117 1.371.533c.328.328.498.68.569 1.172.029.217.081.428.117.474.093.106 3.744.112 3.85.006.093-.093.087-.873-.012-1.406a6.236 6.236 0 0 0-.65-1.781 8.055 8.055 0 0 1-.265-.51c0-.006.094-.064.206-.123l.205-.111.187.17c.246.234.662 1.13.85 1.822.117.451.158.756.181 1.441.012.475.006.955-.011 1.067l-.041.205H9.193l-.04-.205c-.018-.118-.024-.61-.007-1.102.036-1.031.176-1.646.575-2.496.21-.457.527-.885.65-.885.03 0 .123.047.211.1Zm-1.975 1.553c-.152.416-.246 1.289-.228 2.144l.017.89H7.195V27.335l.721-.656c.393-.358.72-.657.727-.657.005-.005-.006.053-.036.123Zm15.698 2.109v.926h-1.202l.018-.89c.018-.856-.076-1.73-.228-2.145-.03-.077.24.128.68.527l.732.662v.92Z" fill="#201F1D"/><path d="M12.656 8.625c-.04.041-.07.164-.07.281 0 .281.088.352.422.352.27 0 .281.006.281.164 0 .217.1.305.352.305s.351-.088.351-.305c0-.158.012-.164.281-.164.334 0 .422-.07.422-.352 0-.117-.029-.24-.07-.281-.047-.047-.352-.07-.984-.07-.633 0-.938.023-.985.07ZM16.875 8.625c-.094.094-.094.469 0 .563.041.04.2.07.352.07.27 0 .28.006.28.164 0 .217.1.305.352.305s.352-.088.352-.305c0-.158.012-.164.281-.164.334 0 .422-.07.422-.352 0-.117-.03-.24-.07-.281-.047-.047-.352-.07-.985-.07-.632 0-.937.023-.984.07ZM15.475 10.031c-.1.13-.545 1.53-.545 1.717 0 .258.539.791.802.791.405 0 .504-.416.182-.744l-.187-.193.187-.575c.2-.609.229-.884.117-.996-.093-.094-.486-.088-.556 0ZM14.56 13.172c-.246.275-.04.644.487.884.75.34 1.992-.04 1.992-.609 0-.217-.152-.38-.357-.38-.077 0-.258.081-.399.175-.193.135-.322.176-.533.176-.211 0-.34-.041-.533-.176-.293-.2-.522-.223-.657-.07Z" fill="#201F1D"/></g><defs><clipPath id="a"><path fill="#fff" transform="translate(.75)" d="M0 0h30v30H0z"/></clipPath></defs></svg>