<svg width="30" height="30" fill="none" xmlns="http://www.w3.org/2000/svg"><path d="m1.137 11.94 1.998-.875h1.187l1.936.875-1.187 1.749-.75 1.312h-2.56V13.69l-.624-1.75ZM24.12 12.033l1.999-.875h1.186l1.936.875-1.186 1.75-.75 1.312h-2.56v-1.312l-.625-1.75Z" fill="#CF243F" stroke="#201F1D"/><ellipse cx="15.006" cy="27.248" rx="1.655" ry="1.656" fill="#CF243F"/><path d="M12.003.255c-.824.894-1.043 2.33-.543 3.512l.1.237h-1.468c-1.617 0-1.748.025-2.142.394-.462.437-.593 1.23-.293 1.812l.143.293-.143.294c-.113.219-.15.394-.15.706 0 .312.037.487.15.706l.143.294-.143.293c-.207.407-.207 1.006 0 1.413l.143.293-.15.306c-.28.569-.18 1.294.25 1.75.425.45.362.444 3.604.444 3.141 0 3.247-.007 3.997-.35a7.61 7.61 0 0 0 .818-.47c.487-.318.974-.524 1.424-.593l.256-.043v.356c0 .268.031.38.125.475.119.118.206.125 1.873.125 1.668 0 1.755-.007 1.874-.125.119-.12.125-.207.125-1.375s-.006-1.256-.125-1.375c-.081-.08-.206-.125-.375-.125-.168 0-.293.044-.374.125-.113.113-.125.207-.125 1v.875h-1.999V4.004h1.999v2.124c0 2.044.006 2.131.125 2.25.08.081.206.125.374.125.169 0 .294-.044.375-.125.119-.119.125-.206.125-2.625 0-2.418-.006-2.505-.125-2.624-.119-.118-.206-.125-1.874-.125-1.667 0-1.755.007-1.873.125-.125.125-.125.206-.125 3.75v3.623h-.175c-.281 0-1.093.225-1.443.4-.175.094-.53.306-.793.475-.893.587-.955.593-4.047.593l-2.673-.006-.15-.168c-.187-.22-.187-.37 0-.582.138-.162.188-.175.793-.212.869-.05.993-.125.993-.6 0-.393-.143-.462-.968-.462-.637 0-.73-.013-.843-.125-.137-.138-.162-.375-.062-.562.093-.175.406-.25 1.037-.25.699 0 .836-.082.836-.5 0-.419-.137-.5-.843-.5-.7 0-1.005-.1-1.068-.338-.118-.487.169-.662 1.068-.662.706 0 .843-.081.843-.5 0-.418-.137-.5-.843-.5-.899 0-1.186-.175-1.068-.662.082-.306.288-.337 2.317-.337 1.762 0 1.849-.007 1.968-.125.206-.206.162-.519-.156-1.056-.363-.619-.469-.937-.469-1.387 0-.338.137-.894.244-1.013.025-.025.705.707 1.511 1.625a168.39 168.39 0 0 0 1.599 1.812c.119.125.2.144.643.144.606 0 .75-.1.75-.5 0-.325-.169-.5-.488-.5-.23 0-.268-.037-1.823-1.824C12.597-.214 12.815.005 12.497.005c-.225 0-.294.031-.494.25ZM3.179 9.515c-.056.044-.287.462-.518.925-.225.462-.419.85-.425.862-.013.006-.45.075-.974.15C.15 11.608 0 11.69 0 12.09c0 .225.05.294.718.969l.718.725-.143.812c-.194 1.05-.194 1.225-.013 1.393.25.232.494.181 1.406-.293l.824-.431.837.43c.95.494 1.193.538 1.405.27.162-.207.162-.363-.025-1.37l-.144-.811.712-.719c.681-.687.712-.73.712-.98 0-.388-.143-.476-1.068-.607a30.692 30.692 0 0 1-.968-.144c-.18-.025-.224-.087-.587-.874-.218-.463-.456-.881-.524-.931-.156-.107-.537-.113-.681-.013Zm.587 2.124c.119.244.262.494.331.557.075.068.312.137.668.187l.556.075-.412.431-.419.431.044.481c.019.263.056.563.081.656l.038.182-.506-.256c-.281-.144-.568-.257-.637-.257-.069 0-.356.113-.637.257l-.506.256.037-.181c.025-.094.063-.394.082-.657l.043-.48-.418-.432-.412-.431.556-.075c.356-.05.593-.119.668-.187.069-.063.212-.313.33-.556.12-.25.238-.45.257-.45.019 0 .137.2.256.45ZM26.162 9.515c-.057.044-.288.462-.519.925-.225.462-.418.85-.425.862-.012.006-.443.075-.968.15-1.124.156-1.255.225-1.255.631 0 .25.031.294.712.981l.712.719-.144.812c-.193 1.05-.193 1.225-.012 1.393.25.232.493.181 1.405-.293l.825-.431.836.43c.95.494 1.193.538 1.406.27.162-.207.162-.363-.025-1.37l-.144-.811.712-.719c.68-.687.712-.73.712-.98 0-.388-.144-.476-1.068-.607a30.643 30.643 0 0 1-.968-.144c-.181-.025-.225-.087-.587-.874-.219-.463-.456-.881-.525-.931-.156-.107-.537-.113-.68-.013Zm.587 2.124c.118.244.262.494.33.557.075.068.313.137.669.187l.556.075-.412.431-.419.431.044.481c.018.263.056.563.081.656l.037.182-.505-.256c-.281-.144-.569-.257-.637-.257-.07 0-.356.113-.637.257l-.506.256.037-.181c.025-.094.063-.394.081-.657l.044-.48-.418-.432-.413-.431.556-.075c.356-.05.594-.119.669-.187.068-.063.212-.313.33-.556.12-.25.238-.45.256-.45.02 0 .138.2.257.45ZM13.053 14.595c-4.353.593-8.15 2.974-10.56 6.604C.974 23.486.118 26.092.03 28.722c-.05 1.343-.118 1.275 1.23 1.275.919 0 1.013-.013 1.125-.125.169-.169.169-.581 0-.75-.106-.106-.206-.125-.718-.125h-.594v-.331c0-.962.438-2.98.912-4.168.225-.58.687-1.562.737-1.562.038 0 1.93 1.119 1.986 1.175.032.031-.043.269-.162.531-.668 1.462-1.03 3.037-1.037 4.461 0 .762.075.894.5.894.462 0 .524-.15.587-1.394.019-.33.106-.937.2-1.343.6-2.693 2.23-5.042 4.521-6.53 4.853-3.136 11.304-1.761 14.44 3.081.943 1.45 1.567 3.268 1.649 4.792.05.925.087 1.144.218 1.275.113.113.225.119 2.117.119 2.51 0 2.28.131 2.23-1.275-.075-2.03-.6-4.03-1.574-5.967-.718-1.443-1.474-2.505-2.623-3.686-1.73-1.781-3.604-2.98-5.914-3.787-.744-.262-1.037-.281-1.224-.075-.157.163-.188.519-.057.688.038.056.425.224.856.374.43.15 1.1.419 1.48.6l.693.331-.593 1.013c-.325.55-.606 1.018-.612 1.03-.013.007-.356-.124-.762-.293-1.224-.525-2.454-.837-3.61-.925l-.53-.044v-2.436l.549.037c.3.025.687.063.868.081.287.038.337.025.487-.125.131-.13.163-.212.144-.425-.025-.362-.2-.468-.893-.55-.775-.087-2.867-.068-3.604.032Zm1.449 2.18v1.206l-.53.044c-1.131.081-2.399.406-3.51.887-.35.15-.65.275-.669.275-.037 0-1.162-1.987-1.162-2.055 0-.063.95-.507 1.624-.756 1.143-.419 2.923-.794 3.86-.806l.387-.007v1.213Zm-6.27 1.894c.306.537.562 1.012.568 1.043.006.038-.231.238-.53.444-.844.58-2.25 2.018-2.83 2.905l-.1.15-1.037-.612c-.936-.55-1.036-.625-.974-.731.031-.069.275-.406.543-.756.562-.75 1.474-1.712 2.13-2.262.587-.488 1.511-1.156 1.605-1.162.031 0 .312.443.625.98Zm15.232-.238c.656.5 1.424 1.219 1.974 1.856.518.594 1.367 1.737 1.367 1.843 0 .05-1.948 1.181-2.035 1.181-.032-.006-.213-.237-.4-.518-.544-.806-2.049-2.275-2.93-2.856l-.143-.094.618-1.037.612-1.043.281.193c.157.107.45.32.656.475Zm4.272 5.418c.68 1.555 1.193 3.642 1.193 4.88v.268h-2.417l-.044-.531c-.081-1.125-.437-2.518-.918-3.605-.137-.313-.237-.575-.225-.588.044-.05 2.011-1.15 2.049-1.15.025 0 .187.326.362.726Z" fill="#201F1D"/><path d="M17.855 20.65c-.13.05-.3.137-.368.206-.069.062-.806.968-1.624 2.018-1.393 1.768-1.518 1.912-1.786 2.012-.662.25-1.293.937-1.493 1.605-.156.538-.094 1.381.138 1.856.23.475.712.95 1.186 1.187.35.17.425.182 1.093.182.668 0 .743-.013 1.093-.182a2.82 2.82 0 0 0 1.193-1.193c.169-.344.181-.431.194-1.125l.006-.75.912-2.261c.655-1.625.911-2.337.911-2.518 0-.282-.162-.65-.362-.831-.143-.132-.543-.288-.73-.288-.07 0-.232.038-.363.081Zm-.33 2.855a73.218 73.218 0 0 1-.75 1.856c-.006.012-.163-.075-.35-.2a2.469 2.469 0 0 0-.506-.263c-.106-.025-.162-.075-.144-.119.044-.118 2.43-3.155 2.455-3.13.012.013-.306.85-.706 1.856ZM15.55 25.91c.53.22.886.75.886 1.337 0 1.269-1.51 1.913-2.429 1.044-.93-.887-.306-2.474.98-2.48.182 0 .431.043.563.1Z" fill="#201F1D"/><path d="M14.627 26.873c-.081.08-.125.206-.125.374 0 .332.169.5.5.5.33 0 .5-.168.5-.5 0-.33-.17-.5-.5-.5-.169 0-.294.044-.375.126ZM13.784 21.043c-.431.056-1.506.356-2.005.556a8.613 8.613 0 0 0-4.11 3.53c-.424.706-.855 1.787-.893 2.237-.03.313-.018.381.1.5.15.15.544.181.712.05.056-.037.206-.369.325-.725.43-1.237.93-2.037 1.836-2.949 1.343-1.35 3.117-2.137 4.909-2.187.725-.018.906-.137.906-.575a.457.457 0 0 0-.144-.343c-.131-.125-.206-.138-.8-.131-.355.006-.73.025-.836.037ZM19.91 23.067c-.125.1-.162.182-.162.382 0 .23.044.3.556.83.88.925 1.493 1.938 1.824 3.037.162.544.287.681.605.681.313 0 .512-.2.512-.512 0-.469-.605-1.912-1.142-2.706-.381-.562-1.037-1.324-1.38-1.6-.344-.274-.563-.305-.813-.111Z" fill="#201F1D"/></svg>