<svg width="30" height="30" fill="none" xmlns="http://www.w3.org/2000/svg"><path d="M6.445 23.965V21.21H1.523v2.754h4.922ZM28.455 23.965V21.21h-4.922v2.754h4.922Z" fill="#CF243F" stroke="#CF243F"/><rect x="9.258" y="18.281" width="11.484" height="1.694" rx=".847" fill="#CF243F"/><path d="m5.332 14.707-3.223-.352v2.637h3.75l.762-.703-1.289-1.582ZM24.668 14.707h3.047v2.285h-3.457l-1.055-.703 1.465-1.582Z" fill="#CF243F"/><path d="m5.332 14.707-3.223-.352v2.637h3.75l.762-.703-1.289-1.582ZM24.668 14.707h3.047v2.285h-3.457l-1.055-.703 1.465-1.582Z" stroke="#CF243F"/><path d="M9.2 5.63c-.452.089-1.003.4-1.378.78-.316.322-.457.569-1.488 2.555a125.151 125.151 0 0 1-1.172 2.238c-.023.024-.375-.047-.785-.158-.861-.235-1.137-.252-1.764-.088-1.125.287-2.004 1.078-2.437 2.197-.205.522-.205 1.518-.012 5.227.164 3.164.164 3.176.305 3.328.082.088.199.146.299.146h.164l.017 1.143c.018 1.096.024 1.143.153 1.271l.134.135h2.72c2.689 0 2.724 0 2.847-.123.135-.14.21-.68.146-1.043-.117-.61-.873-.597-1.002.012l-.04.188H1.933v-1.582h26.132v1.581h-3.972l-.041-.187c-.065-.287-.246-.457-.498-.457-.41 0-.575.322-.51 1.008.023.252.064.392.152.48.123.123.159.123 2.848.123h2.719l.134-.134c.13-.13.135-.176.153-1.272l.017-1.143h.165c.1 0 .216-.058.298-.146.14-.152.14-.164.305-3.328.193-3.71.193-4.705-.012-5.227-.433-1.119-1.312-1.91-2.437-2.197-.627-.164-.903-.147-1.764.088-.41.111-.762.182-.785.158-.018-.023-.55-1.031-1.172-2.238-1.031-1.986-1.172-2.233-1.488-2.555-.393-.398-.926-.691-1.43-.785-.393-.07-11.168-.07-11.549.006Zm11.718 1.12c.176.088.422.258.54.38.14.147.59.95 1.294 2.304.598 1.142 1.078 2.086 1.066 2.097-.006.012-.287.094-.62.188-.675.187-.874.334-.874.65 0 .235.229.463.469.463.105 0 1.002-.223 1.998-.504 1.758-.486 1.817-.498 2.145-.44.925.17 1.699.88 1.986 1.817.111.363.105.697-.064 3.99a260.211 260.211 0 0 0-.147 3v.164H1.29v-.164c0-.088-.065-1.435-.147-3-.17-3.293-.176-3.627-.065-3.99.287-.937 1.06-1.646 1.986-1.816.329-.059.387-.047 2.145.44.996.28 1.893.503 1.998.503.24 0 .469-.229.469-.463 0-.316-.2-.463-.873-.65-.334-.094-.615-.176-.621-.188-.041-.04 2.162-4.19 2.302-4.342.235-.252.452-.392.791-.515.293-.106.54-.106 5.813-.094l5.508.012.322.158Z" fill="#201F1D"/><path d="M8.877 11.889c-.334.14-.393.644-.1.861.146.117 12.299.117 12.445 0 .235-.176.252-.58.035-.78-.11-.099-.422-.105-6.193-.117-3.34-.005-6.123.012-6.187.036ZM2.022 14.156c-.258.281-.135.733.223.815.07.017.615.035 1.213.04 1.03.018 1.101.024 1.412.17.181.089.422.253.539.37.205.205.45.603.45.738 0 .041-.585.059-1.775.059-1.705 0-1.78.006-1.904.117-.24.223-.234.539.006.762.117.11.217.117 2.303.117h2.174l.158-.153c.181-.187.199-.492.058-1.037-.134-.533-.351-.908-.75-1.306-.703-.704-1.177-.844-2.806-.844h-1.16l-.141.152ZM25.155 14.092c-.498.135-.897.369-1.283.756-.399.398-.616.773-.75 1.306-.141.545-.123.85.058 1.037l.158.153h2.174c2.086 0 2.186-.006 2.303-.117.24-.223.246-.54.006-.762-.123-.111-.2-.117-1.905-.117-1.189 0-1.775-.018-1.775-.059 0-.135.246-.533.451-.738.117-.117.358-.281.54-.37.31-.146.38-.152 1.411-.17.598-.005 1.143-.023 1.213-.04.358-.082.48-.534.223-.815l-.14-.152-1.19.006c-.826 0-1.283.03-1.494.082ZM12.152 14.438c-.387.17-.357.761.035.896.293.1 5.332.1 5.625 0 .405-.14.422-.732.024-.896-.281-.118-5.414-.118-5.684 0ZM9.521 17.766c-.246.129-.263.216-.263 1.084 0 .814.006.85.146.984.182.188.44.188.656.006.153-.135.165-.182.188-.645l.018-.504h9.468l.018.504c.023.463.035.51.188.645.216.181.474.181.656-.006.14-.135.146-.17.146-.961 0-.451-.017-.861-.035-.914-.105-.27-.035-.264-5.719-.264-3.761.006-5.384.024-5.467.07ZM1.652 8.994c-.322.14-.387.586-.117.826.1.094.24.112 1.002.13 1.072.028 1.3-.024 1.424-.317.117-.276 0-.569-.27-.662-.287-.094-1.799-.082-2.04.023ZM26.274 8.988c-.246.112-.346.381-.235.65.123.288.358.34 1.424.311.762-.017.903-.035 1.002-.129a.491.491 0 0 0-.134-.826c-.276-.117-1.793-.117-2.057-.006Z" fill="#201F1D"/></svg>