<svg width="31" height="24" fill="none" xmlns="http://www.w3.org/2000/svg"><path d="M15.338.668c-.065.018-.328.07-.586.117-2.502.48-4.717 2.426-5.537 4.863-.229.663-.34 1.213-.405 1.98l-.052.616-1.201 2.01c-.663 1.107-1.29 2.092-1.4 2.197-.306.299-.58.358-2.175.486-1.875.153-1.933.159-2.361.352a2.288 2.288 0 0 0-1.26 1.389c-.1.299-.111.545-.111 2.713 0 2.384 0 2.384.135 2.642.093.17.234.317.422.434.28.176.28.176 1.4.205l1.113.03.065.269c.1.386.328.861.574 1.183l.217.276h-1.81c-1.741 0-1.811.006-1.964.123-.193.152-.217.515-.035.697.117.117.193.117 14.883.117s14.765 0 14.883-.117c.164-.164.158-.527-.006-.68-.117-.105-.27-.111-2.73-.14l-2.608-.03.193-.234c.223-.275.551-.967.604-1.271l.04-.217 1.893-.018 1.893-.017.281-.176c.188-.117.328-.264.422-.434.135-.258.135-.275.135-2.262 0-1.658-.018-2.056-.094-2.32-.328-1.119-1.201-2.021-2.28-2.361-.157-.053-.62-.13-1.013-.176-.838-.1-1.142-.24-1.4-.627-.1-.152-.31-.79-.616-1.857-.492-1.74-.667-2.18-1.048-2.608-.205-.234-.27-.275-.457-.275-.381 0-.451.14-.528 1.031-.082.902-.258 1.582-.615 2.338a6.654 6.654 0 0 1-2.754 2.93c-2.396 1.336-5.502.978-7.506-.873l-.351-.323.48-.005c.264 0 .545-.03.627-.065.287-.135.334-.568.082-.797-.1-.093-.246-.105-1.084-.123-1.101-.023-1.318 0-1.482.176-.111.117-.117.21-.117 1.277 0 1.125 0 1.155.134 1.278.188.175.51.17.674-.006.106-.112.13-.205.13-.504v-.375l.193.158c1.265 1.043 2.244 1.53 3.68 1.834.696.147 2.12.14 2.835-.006 2.754-.574 4.875-2.484 5.725-5.156l.181-.574.387 1.336c.416 1.441.55 1.74.973 2.127.363.334.779.515 1.347.591 1.366.176 1.752.323 2.239.838.334.352.521.686.638 1.125.112.399.117 3.721.012 3.826-.053.053-.539.07-1.834.07h-1.764l-.123-.427c-.656-2.22-3.486-3.006-5.197-1.441-.51.463-.803.949-.973 1.617l-.064.252h-4.06c-4.19 0-4.366.012-4.489.234-.1.188-.07.498.065.621.117.106.287.112 4.306.13l4.184.01.035.165c.105.498.37 1.037.68 1.389l.175.205H8.804l.211-.276a3.152 3.152 0 0 0 .668-1.957c0-.92-.304-1.64-.949-2.29a3.174 3.174 0 0 0-3.029-.833c-.885.217-1.693.867-2.074 1.664-.117.24-.229.551-.252.686l-.041.252H2.33c-.797 0-1.025-.018-1.078-.082-.053-.059-.065-.68-.053-2.332.018-2.479.006-2.403.41-2.807.364-.357.545-.404 2.42-.557 1.91-.152 2.15-.21 2.66-.609a2.94 2.94 0 0 0 .463-.48c.281-.416 2.367-3.926 2.461-4.149.047-.111.123-.562.164-1.008.176-1.699.774-3 1.905-4.136 2.19-2.198 5.566-2.56 8.15-.88a8.3 8.3 0 0 1 .896.698l.399.375-.598.035c-.498.024-.615.053-.715.152-.164.165-.164.516 0 .686.117.117.194.123 1.196.14.586.012 1.148.007 1.254-.017.334-.059.369-.217.369-1.523 0-1.143 0-1.149-.147-1.29a.457.457 0 0 0-.322-.146.457.457 0 0 0-.322.147c-.13.123-.147.193-.147.568v.422l-.246-.235c-.932-.89-2.227-1.57-3.562-1.869-.428-.1-2.274-.175-2.55-.111ZM6.877 17.977c.44.082.797.27 1.142.597 1.342 1.266.657 3.463-1.189 3.809-1.43.264-2.795-1.108-2.543-2.555a2.325 2.325 0 0 1 2.15-1.904c.07-.006.264.023.44.053Zm15.96.005c.71.13 1.36.627 1.659 1.272.14.293.158.404.158.92 0 .545-.012.615-.193.978a2.262 2.262 0 0 1-1.623 1.225c-1.324.246-2.608-.844-2.608-2.203 0-1.055.78-1.986 1.834-2.192.352-.07.387-.07.774 0Z" fill="#201F1D"/><path d="M5.986 18.814c-.978.37-1.254 1.641-.516 2.38.282.28.604.415 1.02.415.61 0 1.143-.363 1.354-.914.117-.304.087-.896-.053-1.172a1.886 1.886 0 0 0-.656-.65c-.24-.129-.885-.158-1.149-.059Zm.703.95a.456.456 0 0 1-.199.873c-.498 0-.65-.633-.21-.873.192-.106.21-.106.41 0ZM21.9 18.85c-.562.258-.867.714-.86 1.318 0 .604.274 1.06.802 1.3.521.247 1.125.177 1.54-.187.81-.691.645-1.957-.31-2.402-.363-.17-.837-.182-1.171-.03Zm.733.884c.117 0 .293.264.293.434-.006.205-.088.334-.275.434-.188.105-.282.087-.481-.082-.135-.112-.182-.2-.182-.34 0-.258.305-.54.516-.469a.767.767 0 0 0 .129.023ZM16.094 3.469c-.223.1-.258.182-.258.633v.345l-.217-.175c-.445-.364-.879-.147-.844.427 0 .059.246.352.534.645l.527.539v.685c0 .61.012.698.117.803.182.182.545.158.697-.035.106-.135.123-.24.123-.797v-.644l.528-.569c.592-.644.656-.82.38-1.09-.198-.205-.445-.193-.702.036l-.206.181v-.351c0-.287-.023-.387-.128-.504-.176-.188-.328-.223-.551-.13ZM13.545 4.975c-.105.105-.123.175-.1.433l.024.305-.27-.17c-.351-.217-.662-.211-.838.023-.193.258-.1.522.258.756.293.188.305.282.035.287-.164 0-.392.264-.392.457 0 .094.053.24.123.329.152.187.287.193 1.125.029l.627-.13.398.265c.217.146.48.31.592.363.34.182.709-.006.709-.352 0-.304-.047-.357-.621-.732-.604-.393-.569-.334-.762-1.225-.129-.603-.246-.761-.556-.761-.153 0-.27.04-.352.123ZM18.566 5.104c-.123.123-.257.492-.45 1.212-.065.252-.095.282-.587.551-.656.363-.756.457-.756.715 0 .252.217.492.446.492.082 0 .41-.146.726-.322l.569-.328.656.181c.674.182.808.2.973.141.146-.059.275-.363.234-.55-.047-.2-.135-.282-.416-.382l-.211-.07.299-.187c.328-.2.451-.387.392-.616-.093-.38-.392-.462-.855-.228l-.34.176.059-.2a1.03 1.03 0 0 0 .017-.375.448.448 0 0 0-.756-.21ZM14.652 8.484c-.281.164-.557.293-.603.293-.053 0-.329-.064-.616-.146-.691-.194-.949-.194-1.107.006-.229.293-.117.615.27.761l.257.1-.293.164c-.433.252-.533.533-.293.838.159.2.446.205.785 0l.258-.146-.035.298c-.03.258-.018.317.1.44.1.105.199.146.351.146.276 0 .428-.164.551-.603.053-.182.135-.48.188-.656l.087-.323.586-.322c.317-.182.604-.38.639-.44a.48.48 0 0 0-.422-.703c-.123 0-.375.106-.703.293ZM16.897 8.35a.598.598 0 0 0-.159.287c-.046.24.135.445.733.814l.469.293.164.703c.111.498.199.739.293.832.176.182.45.176.644-.017.13-.13.147-.188.123-.434l-.029-.287.328.182c.352.193.55.199.732.011.258-.257.153-.597-.263-.86l-.305-.188.24-.047c.276-.053.48-.27.48-.492 0-.17-.292-.487-.45-.487-.059.006-.399.065-.762.14l-.656.136-.545-.34c-.58-.37-.815-.428-1.037-.246ZM15.988 8.842c-.147.117-.152.135-.152.797v.68l-.522.562c-.492.533-.557.644-.539.896.012.182.223.34.457.34.164 0 .264-.047.41-.187l.194-.188v.41c0 .358.017.434.134.54.188.175.475.17.656-.018.124-.117.147-.2.147-.498v-.357l.193.146c.393.299.862.123.862-.31 0-.17-.076-.276-.528-.733l-.527-.54v-.626c0-.68-.053-.873-.275-.973-.206-.093-.334-.082-.51.059Z" fill="#CF243F"/><path d="M2.43 15.164c-.182.17-.177.522.005.691.17.159.451.165.633.018.193-.158.193-.556 0-.715-.182-.146-.48-.14-.639.006ZM27.22 15.135c-.17.123-.222.386-.11.603.228.446.855.27.855-.24 0-.38-.422-.586-.744-.363Z" fill="#201F1D"/></svg>