<svg width="31" height="30" fill="none" xmlns="http://www.w3.org/2000/svg"><g clip-path="url(#a)"><path d="m.836 8.672 4.98-5.04 1.407-1.054 1.582.352 2.636 1.816-1.757 2.52-5.45 5.39-1.406.352-1.465-1.934-.527-2.402ZM23.556 2.32l5.188 4.825 1.097 1.374-.303 1.591-2.1 3.25-2.207-2.24-5.554-5.283-.394-1.395 1.888-1.522 2.386-.6Z" fill="#CF243F" stroke="#201F1D"/><circle cx="10.56" cy="21.26" r="3.076" fill="#CF243F"/><circle cx="20.637" cy="19.971" r="2.347" fill="#CF243F"/><circle cx="15.273" cy="15.075" r="2.347" fill="#CF243F"/><path d="M7.287 2.174c-.51.088-.932.357-1.553.984-.504.516-.562.598-.562.791 0 .281.164.445.445.445.194 0 .276-.058.78-.55.591-.575.72-.668 1.06-.744.357-.082.686.04 1.307.486l.58.416-3.621 3.621c-1.993 1.992-3.639 3.603-3.662 3.58-.153-.17-.704-.955-.78-1.107-.129-.252-.117-.75.018-1.043.07-.153.715-.838 1.816-1.934C4.71 5.531 4.82 5.41 4.82 5.215c0-.322-.134-.469-.427-.469-.247 0-.258.006-2.016 1.77C.262 8.643.279 8.619.279 9.58c0 .604.012.668.176.979.1.181.662.99 1.26 1.798 1.142 1.547 1.242 1.647 1.57 1.524.088-.035.31-.211.498-.393l.334-.334.217.217.217.217-.305.316a5.037 5.037 0 0 0-1.207 4.612c.14.568.61 1.494.99 1.95.616.733 1.594 1.366 2.45 1.589.193.047.351.093.357.105.006.012.07.2.14.428.07.223.23.58.346.785.305.51 1.002 1.154 1.53 1.412l.421.205v.908c0 .838.012.932.141 1.213.316.674 1.154.938 1.828.586.182-.094.61-.545.61-.639 0-.023.123-.046.28-.046.264 0 .288.011.481.275.287.387.616.557 1.078.557.516.005.967-.252 1.184-.674.076-.14.117-.158.375-.158s.299.017.375.158c.217.422.668.674 1.184.674.462.005.79-.17 1.078-.557.193-.258.216-.275.48-.275.229 0 .287.023.346.134.492.956 1.922.932 2.373-.035.14-.304.14-.322.14-2.15v-1.852l.405-.1c.404-.105.96-.398 1.236-.65.1-.093.252-.146.469-.176.533-.058.996-.199 1.559-.48.627-.305.75-.422.75-.703 0-.416-.375-.58-.786-.346-.345.2-.738.381-.931.44l-.159.04.124-.456c.117-.457.117-.457.468-.686 1.248-.809 1.787-2.314 1.319-3.709-.14-.416-.563-1.084-.82-1.3l-.165-.141.293-.287.293-.287.352.38c.445.48.82 1.243.96 1.934.17.861.018 1.81-.421 2.625-.235.434-.258.715-.07.89.31.288.65.094.972-.556.932-1.893.61-4.12-.82-5.637l-.305-.316.217-.217.217-.217.334.334c.187.182.41.358.498.393.328.123.428.023 1.57-1.524.598-.808 1.166-1.623 1.26-1.804.164-.305.176-.37.176-.973 0-.592-.012-.668-.164-.967-.246-.469-5.713-5.953-6.194-6.205a2.267 2.267 0 0 0-1.945-.076c-.37.164-3.281 2.332-3.375 2.508-.123.228-.041.41.357.826l.358.375-1.488 1.488-1.495 1.494h-2.05L12.73 7.53l-1.488-1.488.358-.375c.398-.416.48-.598.357-.826-.111-.211-3.111-2.408-3.475-2.549a2.381 2.381 0 0 0-1.195-.117Zm16.108 1.054c.31.159 5.718 5.602 5.83 5.866.117.287.11.767-.006 1.002-.076.152-.627.937-.78 1.107-.023.024-1.67-1.588-3.662-3.58l-3.62-3.621.58-.422c.767-.545 1.13-.621 1.658-.352ZM10.709 5.016c.111.082-.076.275-3.697 3.896l-3.815 3.814-.27-.34-.269-.345 3.727-3.732 3.732-3.733.235.176c.134.094.293.21.357.264Zm16.863 7.365-.27.345-3.796-3.796c-2.092-2.092-3.803-3.815-3.803-3.832.006-.018.152-.141.34-.276l.334-.246 3.732 3.727 3.733 3.726-.27.352ZM11.957 8.103l1.36 1.36-2.89 2.889-2.882 2.882-1.377-1.377-1.377-1.377.305-.304.31-.305.662.65c.739.733 1.008.891 1.495.897.75 0 1.3-.54 1.3-1.29 0-.497-.158-.76-.89-1.505l-.657-.662.375-.381.381-.38.703.702c.756.75.961.88 1.436.88.51 0 .979-.288 1.178-.733.134-.287.146-.832.023-1.125-.053-.117-.393-.522-.773-.908l-.686-.692.287-.293c.158-.164.305-.293.322-.293.018 0 .645.615 1.395 1.365Zm8.303-1.072.287.293-.686.692c-.38.386-.72.79-.773.908-.123.293-.111.838.023 1.125.2.445.668.732 1.178.732.475 0 .68-.129 1.436-.879l.703-.703.38.381.376.38-.65.657c-.75.768-.897 1.008-.897 1.494.006.768.539 1.307 1.3 1.307.481-.006.745-.164 1.489-.89l.674-.657.304.305.305.304-1.377 1.377-1.377 1.377-2.883-2.883-2.888-2.888 1.359-1.36c.75-.75 1.377-1.365 1.395-1.365.017 0 .164.13.322.293ZM9.936 8.666c.527.527.627.662.627.814 0 .2-.17.364-.381.364-.07 0-.375-.258-.774-.657l-.662-.656.246-.252c.135-.14.264-.252.281-.252.018 0 .317.287.663.639Zm11.572-.387.246.252-.662.656c-.399.399-.703.657-.774.657a.373.373 0 0 1-.38-.364c0-.152.1-.287.627-.814.345-.352.644-.639.662-.639.017 0 .146.112.28.252Zm-2.145 4.711 3.035 3.035-.146.44c-.076.24-.17.433-.2.422-.034-.006-1.27-.885-2.747-1.952-1.471-1.072-2.848-2.027-3.059-2.127-.351-.17-.428-.181-1.002-.181-.598 0-.633.006-1.066.223-.422.21-.621.386-2.918 2.636-1.36 1.33-2.485 2.42-2.508 2.432-.023.006-.182-.416-.346-.938l-.304-.955 3.035-3.035 3.029-3.03h2.168l3.03 3.03ZM7.3 11.303c.674.68.744.826.51 1.06-.217.217-.34.153-1.038-.539l-.662-.656.246-.252c.135-.14.264-.252.282-.252.017 0 .316.287.662.639Zm16.846-.387.246.252-.662.656c-.399.399-.704.656-.774.656a.373.373 0 0 1-.38-.363c0-.152.099-.287.626-.814.346-.352.645-.639.662-.639.018 0 .147.111.282.252Zm-8.215 2.783c.498.252.902.89.902 1.418 0 .615-.521 1.313-1.113 1.488-.393.118-.545.118-.938 0-.61-.181-1.113-.873-1.113-1.523 0-.61.533-1.29 1.166-1.494.246-.082.838-.018 1.096.111Zm-10.395.873.276.27-.147.111c-.252.205-.68.861-.826 1.283-.416 1.207-.111 2.49.797 3.352.369.345 1.031.744 1.236.744.047 0 .059.047.035.129a4.267 4.267 0 0 0-.076.416c-.035.27-.04.281-.187.246-.288-.07-.873-.38-1.23-.65-1.184-.885-1.794-2.461-1.507-3.891.135-.674.516-1.447.944-1.922.181-.2.351-.363.369-.363.017 0 .164.123.316.275Zm13.483 1.336 1.136.82-.24.065c-.78.21-1.06.434-3.492 2.83l-2.08 2.045-.035-.533c-.07-.961-.399-1.682-1.073-2.362-.65-.644-1.312-.966-2.279-1.095l-.515-.07 1.148-1.102c.662-.645 1.154-1.072 1.166-1.026l.094.34c.17.645.709 1.283 1.318 1.559a2.509 2.509 0 0 0 3.563-1.91c.035-.223.082-.405.105-.399.023.012.557.387 1.184.838ZM7.545 17.385c.21.656.38 1.224.38 1.265 0 .047-.058.13-.122.194-.07.058-.205.222-.3.357-.093.14-.21.252-.263.252-.193 0-.797-.387-1.072-.686-.398-.433-.55-.85-.55-1.482-.007-.44.017-.545.18-.89.1-.212.294-.499.429-.633l.246-.246.345.34.34.345.387 1.184Zm16.852-1.494c.714.908.673 2.08-.106 2.923-.182.194-.346.328-.37.305-.023-.023-.087-.182-.146-.34-.128-.363-.28-.615-.597-1.002l-.24-.304.199-.633c.187-.586.228-.662.533-.973.305-.31.334-.328.451-.252.07.047.194.17.276.276Zm-2.69 1.962a2.31 2.31 0 0 1 1.12 1.12c.17.351.187.445.187.92-.006.726-.159 1.107-.639 1.581-.738.739-1.646.915-2.531.504-1.389-.65-1.793-2.332-.838-3.515.228-.293.527-.498.973-.686.287-.123.416-.14.837-.129.416.018.563.047.891.205Zm-10.242.897c1.16.398 1.91 1.459 1.91 2.695 0 1.272-.879 2.397-2.139 2.725-1.142.293-2.414-.223-3.07-1.254-.316-.492-.428-.955-.404-1.617.017-.533.04-.627.24-1.043.387-.815 1.166-1.448 2.004-1.617.404-.082 1.043-.036 1.459.11Zm6.246 2.203c.129.387.387.832.633 1.09l.152.164-1.67-.006h-1.664l1.172-1.137 1.172-1.136.04.334c.024.181.1.492.165.691Zm-2.227 3.656v1.465h-.468v-2.93h.468v1.465Zm1.7.287c0 1.6-.012 1.764-.106 1.881-.129.159-.38.17-.539.03-.111-.1-.117-.194-.117-1.887v-1.776h.762v1.752Zm1.347-.287v1.465h-.41v-2.93h.41v1.465Zm1.758.287c0 1.582-.012 1.764-.1 1.87-.181.21-.351.216-.544.017l-.176-.17V23.144h.82v1.752Zm-6.322 1.899a.396.396 0 0 1-.533.012c-.112-.1-.118-.188-.118-1.442v-1.33l.37-.352.363-.357.017 1.682c.012 1.588.006 1.681-.1 1.787ZM12.379 25.4v.674h-.41v-1.148l.193-.1c.1-.047.193-.094.205-.094a9.82 9.82 0 0 1 .012.668Zm-1.348.504v.71l-.176.17c-.193.198-.363.193-.539-.018-.088-.1-.105-.235-.105-.844v-.727h.82v.71Z" fill="#201F1D"/><path d="M20.107 18.738c-.925.48-.92 1.881.006 2.356.563.287 1.155.199 1.588-.235a1.328 1.328 0 0 0-.943-2.285c-.258 0-.416.041-.65.164Zm.944.89a.432.432 0 0 1 .117.264c0 .182-.24.44-.41.44-.164 0-.41-.252-.41-.416 0-.334.463-.527.703-.287ZM10.035 20.162c-.814.34-1.084 1.442-.515 2.133.263.316.591.463 1.043.463.457 0 .779-.147 1.042-.469.493-.598.352-1.576-.293-2.004-.205-.135-.316-.158-.685-.17-.246-.011-.51.012-.592.047Zm.82.99c.223.223.088.598-.246.68-.123.023-.193 0-.304-.117-.276-.27-.123-.68.258-.68.1 0 .228.053.292.117Z" fill="#201F1D"/></g><defs><clipPath id="a"><path fill="#fff" transform="translate(.25)" d="M0 0h30v30H0z"/></clipPath></defs></svg>