<svg width="31" height="30" fill="none" xmlns="http://www.w3.org/2000/svg"><g clip-path="url(#a)"><path fill="#CF243F" d="M9.289 17.695h12.992v2.168H9.289z"/><path fill="#CF243F" d="M7.59 13.184h2.109v12.07H7.59zM20.773 12.949h2.109v12.012h-2.109zM14.621 20.625h1.465v4.629h-1.465zM13.517 6.738H17.2l-.82 13.125h-2.051l-.812-13.125Z"/><path d="M14.2.111c-1.008.328-1.723 1.207-1.87 2.297-.04.287-.058.996-.04 1.776.029 1.447.081 1.693.486 2.302.193.293.205.34.24.979l.04.674-3.685.017-3.685.018-.422.152a3.752 3.752 0 0 0-2.074 1.84c-.422.855-.405.428-.405 8.906 0 8.502-.017 8.045.416 8.936.446.914 1.366 1.652 2.367 1.904.305.076 1.583.088 9.92.088 10.553 0 9.873.023 10.641-.363a3.687 3.687 0 0 0 1.67-1.67c.346-.686.357-.82.357-3.89v-2.79l-.146-.152c-.182-.176-.387-.223-.65-.147-.41.112-.399.047-.434 3.182l-.03 2.812-.187.387c-.228.469-.762.99-1.207 1.195a3.012 3.012 0 0 1-.78.206c-.31.04-3.468.058-9.574.046l-9.11-.017-.364-.14a2.68 2.68 0 0 1-1.5-1.471l-.129-.323-.018-7.64c-.017-8.444-.035-8.022.358-8.672.24-.399.603-.721 1.09-.961l.386-.188 3.633-.017 3.639-.018.187 3.504c.106 1.928.211 3.68.229 3.897l.035.398H10.578v-1.57c0-1.588-.053-2.174-.21-2.485-.153-.293-.499-.633-.81-.797-.251-.129-.374-.152-.796-.152-.428-.006-.54.018-.791.152-.381.2-.744.592-.885.961-.105.276-.111.522-.111 5.825v5.537l.152.328c.31.656.809.996 1.518 1.037.79.04 1.412-.328 1.752-1.043l.152-.322.018-1.951.023-1.946h3.094v1.899c0 2.261.011 2.338.527 2.853.41.416.768.55 1.371.51.68-.047 1.19-.381 1.483-.973l.164-.334.017-1.98.018-1.975h3.094l.017 1.975.018 1.98.164.334c.293.592.803.926 1.482.973.604.04.955-.094 1.377-.51.557-.562.522-.1.522-6.445v-5.543l-.165-.352a1.806 1.806 0 0 0-.884-.873c-.393-.176-1.108-.17-1.477.012a1.976 1.976 0 0 0-.861.85l-.158.304-.018 1.864-.017 1.857h-3l.035-.486c.017-.264.117-1.957.216-3.762.1-1.805.194-3.34.211-3.416l.03-.135 3.615.018 3.615.017.387.182c.668.316 1.113.809 1.336 1.476.117.34.123.487.123 2.813 0 1.354.018 2.537.035 2.642.094.475.68.645 1.025.305l.17-.17v-2.69c0-2.987-.005-3.028-.392-3.825-.158-.334-.322-.551-.686-.909-.545-.539-.99-.796-1.652-.966-.428-.112-.656-.117-3.996-.117h-3.54l.042-.692c.04-.592.064-.709.176-.844.193-.228.415-.72.492-1.09.1-.486.082-3-.024-3.462-.181-.774-.726-1.436-1.488-1.81l-.44-.218-1.054-.011c-.902-.012-1.113 0-1.395.093Zm2.255 1.196c.281.117.668.48.82.767.123.229.13.31.13 1.764 0 1.728-.012 1.781-.499 2.22-.392.352-.574.405-1.406.41-.639 0-.773-.017-1.025-.134-.37-.164-.586-.37-.78-.738l-.158-.293V3.838c0-1.424.006-1.47.14-1.729.259-.492.616-.767 1.138-.879.345-.076 1.394-.023 1.64.077Zm-1.394 6.398c.228.023.674.012.996-.018.322-.035.597-.046.61-.035.046.041-.645 11.49-.71 11.643-.164.422-.767.451-.984.047-.041-.082-.703-11.051-.703-11.66 0-.053.058-.07.193-.047.1.023.375.052.598.07Zm-5.989 5.771a.79.79 0 0 1 .217.34c.035.13.059 1.02.059 2.198 0 1.248.023 2.021.058 2.097.147.27.282.287 2.315.287 1.775 0 1.904.006 1.91.1 0 .059.023.31.041.557l.047.457H9.705l-.164.14-.164.14-.03 2.327-.029 2.326-.193.17c-.351.31-.82.152-.914-.304-.064-.323-.041-10.26.023-10.495.077-.257.305-.457.528-.457a.6.6 0 0 1 .31.117Zm13.506.088.13.153v10.728l-.17.17c-.282.276-.68.223-.856-.123-.076-.14-.088-.527-.088-2.402v-2.238l-.17-.17-.17-.17H17.223l.023-.428c.006-.229.03-.48.047-.557l.024-.129h1.88c1.594 0 1.91-.011 2.075-.093a.626.626 0 0 0 .246-.188c.023-.053.058-1.072.076-2.256l.03-2.162.198-.176c.164-.146.229-.17.41-.14a.64.64 0 0 1 .346.181Zm-6.55 9.012c0 1.441-.018 1.776-.088 1.916-.176.346-.575.399-.856.123l-.17-.17V20.83h1.113v1.746Z" fill="#201F1D"/><path d="M8.322 10.447c-.117.094-.164.205-.187.399-.03.24-.012.293.14.463.422.468 1.202.052 1.05-.557-.106-.422-.669-.592-1.003-.305ZM21.898 10.459c-.34.287-.27.832.14 1.002.428.181.845-.088.845-.545a.587.587 0 0 0-.985-.457ZM27.148 18.633c-.164.164-.175.21-.146.457.04.357.24.539.586.539.293 0 .468-.106.568-.346.176-.428-.1-.826-.568-.826-.211 0-.293.035-.44.176ZM8.393 26.725a.642.642 0 0 0-.188.228c-.228.44.03.879.522.879.398 0 .592-.188.592-.586 0-.258-.024-.322-.165-.445-.175-.153-.562-.194-.761-.076ZM15.06 26.8c-.403.405-.146 1.032.423 1.032.363 0 .603-.234.603-.586 0-.357-.24-.586-.615-.586-.205 0-.299.035-.41.14ZM21.875 26.818c-.2.217-.246.44-.14.686.105.246.245.328.58.328.222 0 .287-.03.415-.182a.58.58 0 0 0 .153-.404.58.58 0 0 0-.152-.404c-.13-.158-.194-.182-.428-.182-.229 0-.305.03-.428.158Z" fill="#201F1D"/></g><defs><clipPath id="a"><path fill="#fff" transform="translate(.5)" d="M0 0h30v30H0z"/></clipPath></defs></svg>