<svg width="28" height="30" fill="none" xmlns="http://www.w3.org/2000/svg"><rect x=".844" y="2.573" width="26.138" height="5.919" rx="2.96" fill="#CF243F"/><path d="M5.415.059c-.539.217-.82.709-.82 1.442v.48L3.382 2c-1.196.017-1.225.023-1.571.181A2.24 2.24 0 0 0 .557 3.745c-.053.24-.065 3.323-.053 12.46l.018 12.137.234.463c.276.533.645.878 1.172 1.072l.328.123 11.85-.012 11.85-.017.334-.159c.44-.205.832-.609 1.061-1.09l.188-.392.017-12.131c.018-12.73.023-12.495-.234-13.005-.194-.38-.657-.826-1.061-1.008-.358-.17-.381-.17-1.576-.187l-1.22-.018v-.486c0-.61-.181-1.02-.574-1.296-.234-.158-.305-.175-.797-.193-.645-.023-.89.065-1.225.457-.24.282-.334.604-.334 1.137v.387H7.525V1.6c0-.533-.094-.855-.334-1.137C6.874.094 6.622-.006 6.048 0c-.27 0-.55.03-.633.059Zm1.043 1.025c.106.123.13.217.13.528v.375H5.531v-.375c0-.475.036-.557.258-.657a.58.58 0 0 1 .668.13Zm15.77-.146c.247.088.3.205.3.662v.387H21.473v-.375c0-.41.129-.65.37-.698.07-.011.146-.029.163-.035.018 0 .117.024.223.059ZM4.607 3.792c.018.838.024.879.182 1.113.293.452.926.727 1.325.592.21-.076.299-.205.299-.45 0-.212-.194-.394-.481-.446-.346-.065-.399-.188-.399-.985v-.691h15.003v.691c0 .862.088 1.196.393 1.489.299.281.568.41.897.422.363.006.527-.13.527-.446 0-.263-.164-.457-.387-.457-.088 0-.223-.07-.322-.17-.17-.17-.17-.181-.17-.85v-.68h2.069c2.303 0 2.326.006 2.719.417.352.375.37.486.37 2.813v2.104H7.776l-.158.123c-.205.164-.211.469-.006.668l.14.146H26.63v5.755c0 5.697 0 5.755-.123 6.001a.987.987 0 0 1-.334.387c-.211.13-.27.135-2.063.164l-1.852.03-.387.193c-.457.223-.756.55-.931 1.008-.1.264-.112.457-.112 1.94 0 1.002-.023 1.74-.064 1.899-.094.363-.399.65-.78.732-.205.041-2.989.059-8.913.047l-8.615-.017-.282-.141a1.33 1.33 0 0 1-.662-.75c-.064-.182-.076-1.776-.082-8.738v-8.51h2.456c2.32 0 2.461-.006 2.59-.111.193-.158.193-.557 0-.715-.129-.105-.27-.111-2.59-.111H1.43V6.154c0-2.327.018-2.438.37-2.813.35-.37.527-.416 1.722-.416h1.061l.023.867Zm19.24 20.758a160.497 160.497 0 0 1-2.11 2.092c0-.006.012-.815.03-1.8.03-1.734.035-1.793.158-1.968.076-.106.246-.24.381-.31.24-.118.34-.124 1.952-.124h1.7l-2.11 2.11Zm2.726 3.569c-.088.34-.37.68-.686.832l-.281.14-11.364.018c-7.536.006-11.475-.006-11.692-.047a1.815 1.815 0 0 1-.545-.205c-.222-.146-.474-.521-.539-.803l-.035-.158.334.158.34.159H21.21l.352-.194c.281-.152.838-.674 2.696-2.532l2.344-2.344.017 2.38c.006 1.465-.011 2.461-.046 2.596Z" fill="#201F1D"/><path d="M3.599 11a.843.843 0 0 0-.334.364c-.13.246-.135.328-.135 1.459 0 1.389.047 1.582.463 1.81.21.124.299.13 1.483.13 1.37 0 1.517-.03 1.775-.375.112-.153.117-.246.117-1.56 0-1.324-.005-1.406-.123-1.564-.246-.34-.392-.37-1.781-.37-1.108 0-1.29.012-1.465.106ZM6.06 12.83v.996H4.068V11.832H6.06v.997ZM9.588 10.994a1.035 1.035 0 0 0-.323.276c-.123.17-.129.246-.146 1.483-.018 1.219-.012 1.312.105 1.535.217.434.381.475 1.823.475 1.371 0 1.524-.03 1.77-.375.123-.176.129-.229.129-1.571 0-1.307-.006-1.395-.123-1.553-.247-.34-.393-.37-1.782-.37-1.043 0-1.295.018-1.453.1Zm2.45 1.835v.996H10.044V11.832h1.992v.997ZM15.56 11a1.026 1.026 0 0 0-.323.264c-.117.158-.123.246-.123 1.553 0 1.342.006 1.395.13 1.57.245.346.398.376 1.77.376 1.44 0 1.605-.041 1.822-.475.117-.223.123-.316.105-1.535-.017-1.237-.023-1.313-.146-1.483-.247-.346-.393-.375-1.788-.375-1.072 0-1.277.011-1.447.105Zm2.455 1.829v.996h-1.992V11.832h1.992v.997ZM21.537 11a1.024 1.024 0 0 0-.322.264c-.117.158-.123.24-.123 1.565 0 1.313.006 1.406.117 1.559.258.345.404.375 1.776.375 1.184 0 1.271-.006 1.482-.13.417-.228.463-.421.463-1.81 0-1.131-.006-1.213-.128-1.46-.23-.439-.34-.468-1.805-.468-1.085 0-1.29.011-1.46.105Zm2.456 1.829v.996H22V11.832H23.993v.997ZM3.54 16.474c-.392.27-.416.387-.398 1.846.017 1.207.023 1.313.14 1.46.293.398.317.404 1.712.421 1.236.018 1.277.018 1.53-.117.445-.24.474-.346.474-1.834 0-1.442-.023-1.547-.422-1.788-.176-.105-.299-.117-1.518-.117-1.277 0-1.33.006-1.518.13Zm2.52 1.805v.996H4.068v-1.992H6.06v.996ZM9.512 16.48c-.37.246-.405.392-.405 1.764 0 1.12.012 1.248.123 1.477a.71.71 0 0 0 .37.369c.222.111.357.123 1.441.123 1.383 0 1.577-.047 1.805-.463.123-.211.13-.299.13-1.477 0-1.406-.03-1.547-.405-1.793-.193-.13-.246-.135-1.53-.135-1.283 0-1.336.006-1.53.135Zm2.526 1.799v.996H10.045v-1.992H12.038v.996ZM15.49 16.48c-.376.246-.405.387-.405 1.793 0 1.178.006 1.266.129 1.477.228.416.422.463 1.805.463 1.084 0 1.219-.012 1.442-.123a.71.71 0 0 0 .369-.37c.111-.228.123-.357.123-1.476 0-1.372-.035-1.518-.404-1.764-.194-.13-.247-.135-1.53-.135s-1.336.006-1.53.135Zm2.525 1.799v.996h-1.992v-1.992h1.992v.996ZM21.537 16.568a1.024 1.024 0 0 0-.322.264c-.117.158-.123.24-.123 1.564 0 1.313.006 1.407.117 1.56.258.345.404.374 1.776.374 1.184 0 1.271-.005 1.482-.129.417-.228.463-.422.463-1.81 0-1.132-.006-1.214-.128-1.46-.23-.44-.34-.469-1.805-.469-1.085 0-1.29.012-1.46.106Zm2.456 1.828v.997H22V17.4H23.993v.996ZM3.534 21.93c-.369.246-.404.393-.404 1.77s.035 1.524.404 1.77c.194.129.24.135 1.565.135h1.36l.187-.153c.334-.287.352-.363.352-1.752s-.018-1.465-.352-1.752l-.187-.153h-1.36c-1.324 0-1.371.006-1.565.135ZM6.06 23.7v1.026H4.068v-2.052H6.06V23.7ZM9.518 21.924c-.375.252-.41.393-.41 1.776s.035 1.524.41 1.776c.199.135.222.135 1.588.117l1.389-.018.164-.146c.287-.27.316-.422.316-1.729 0-1.307-.029-1.46-.316-1.729l-.164-.146-1.39-.018c-1.365-.017-1.388-.017-1.587.117Zm2.52 1.776v1.026H10.045v-2.052H12.038V23.7ZM15.583 21.854c-.158.065-.357.287-.434.486-.035.094-.064.375-.064.633 0 .422.017.48.146.61.088.094.211.146.323.146a.457.457 0 0 0 .322-.146c.13-.123.147-.194.147-.528v-.38h1.992v2.051h-1.98l-.036-.147c-.023-.094-.117-.187-.24-.246-.194-.094-.217-.094-.41 0-.346.164-.352.645 0 1.026l.193.216 1.4.018c1.378.018 1.401.018 1.6-.117.376-.252.41-.393.41-1.776 0-1.377-.034-1.524-.404-1.77-.193-.129-.24-.135-1.523-.129-.727 0-1.377.024-1.442.053Z" fill="#201F1D"/><path d="M3.95 11.715h2.344v2.227H3.95v-2.227ZM15.847 17.224h2.344v2.227h-2.344v-2.227ZM3.95 22.557h2.344v2.227H3.95v-2.227ZM21.942 11.715h2.344v2.227h-2.344v-2.227Z" fill="#CF243F"/></svg>